<?xml version="1.0" encoding="utf-8"?>
<!-- Generator: Adobe Illustrator 26.2.1, SVG Export Plug-In . SVG Version: 6.00 Build 0)  -->
<svg version="1.1" id="Layer_1" xmlns="http://www.w3.org/2000/svg" xmlns:xlink="http://www.w3.org/1999/xlink" x="0px" y="0px"
	 viewBox="0 0 249.9 351.7" style="enable-background:new 0 0 249.9 351.7;" xml:space="preserve">
<g>
	<path d="M6.3,333c0.9,0,1.8-0.1,2.7-0.3c0.3-0.1,0.6,0.1,0.7,0.4c0.2,1.1-1.4,1.2-2.1,1.7c-1.1,0.7-0.5,3.2-0.6,4.4
		c0.2,1.3-0.5,6.2,1.3,6c0.3,0,0.7,0,0.8,0.4c0.2,1-1.3,1.3-2,1.6c-1.1,0.1-2.1,0.2-3.2,0.1c-0.6,0-1.5,0.3-1.9-0.3
		c-0.2-0.3,0.1-0.5,0.3-0.6c0.5-0.4,1-0.8,1.5-1.2c1-0.8,0.5-2.7,0.6-3.8c-0.1-1.9-0.1-3.8-0.3-5.7c-0.1-0.6-0.4-0.9-1-0.9
		c-0.5-0.1-2.2,0.1-1.7-0.9c0.5-0.7,1.2-1.1,2.1-1.1C4.4,332.8,5.2,332.9,6.3,333z"/>
	<path d="M31.6,344.8c1.3,0,2.7,0.2,3.6-0.9c1-1,2,0,0.8,0.9c-1.1,0.9-1.9,3-3.6,2.6c-2.2-0.4-4.6-0.2-6.8-0.3
		c-0.8-0.1-3.4,0.6-2.4-1c0.4-0.7,1-1.2,1.7-1.5c3-1.5,9.9-4.8,6.7-8.9c-0.5-0.7-1.4-1.1-2.3-1c-1.6,0.3-3.3,0.7-4.4,2
		c-0.3,0.3-0.9,0.4-1-0.1c0-0.2,0.1-0.4,0.2-0.6c1.2-1.9,3.3-3.2,5.5-3.5c0.3,0,1.4-0.2,1.7-0.2c1.5-0.2,3.6,1.9,3.5,3.5
		c0,1.6-0.6,3.2-1.7,4.4C31.7,342.6,24.9,345.1,31.6,344.8z"/>
	<path d="M54.9,339.6c1.1,0.4,2.2,1.1,3.1,1.9c1.7,1.6,1.9,4.8,0.2,6.5c-2.5,2.7-7.8,4.5-10.7,1.7c-0.1-0.1-0.2-0.3-0.2-0.4
		s0.1-0.3,0.2-0.4c2.8-2.8,1.1,1,6.6,0.2c1.5-0.1,3.3-1.1,3.1-2.8c-0.3-1.9-1.4-3.9-3.4-4.3c-0.6-0.3-3.9,0-2.9-1.1
		c1.3-1.8,6.1-1.6,4.8-4.8c-0.4-0.7-0.8-2-1.9-1.7c-1.4,0.2-2.7,0.7-3.7,1.6c-0.2,0.1-0.5,0.5-0.8,0.2c0.3-1.5,3.3-3.1,4.7-3.5
		c0.9-0.4,1.9-0.3,2.8,0.1c1.3,1,2.3,2.8,1.1,4.5C56.9,338,55.9,338.8,54.9,339.6z"/>
	<path d="M72.7,346.6c-0.1-0.4,0.2-0.7,0.4-1c2.5-3.1,5.2-6,7.9-9c0.7-0.6,3.6-6,4-3.4c-0.1,3.5-0.2,7,0,10.5c0,0.3,0,0.6,0.4,0.7
		c1.8,0.4,1.6-1.4,2.6-1c0.6,0.2-0.5,1.2-0.9,1.8c-0.4,0.6-0.4,1.2-1.1,1.5c-0.2,0.1-0.8,0.2-0.8,0.4c-0.3,1.2-0.1,2.9-1,3.9
		c-2.9,2.8-1.3-2-1.8-3.5c0-0.2-0.1-0.3-0.2-0.5s-0.3-0.2-0.5-0.1c-2.5,0.3-5,0-7.5,0.2C73.6,346.9,72.9,347.2,72.7,346.6z
		 M75.6,344.4c2.2,0,4.3,0.1,6.5,0c0.2,0,0.3-0.2,0.3-0.3c0.1-2.4,0.1-4.8,0.1-7.1c0-0.5-0.5-0.3-0.7,0
		C80,339.6,77.2,341.6,75.6,344.4z"/>
	<path d="M100.5,350.8c-0.4-0.1-0.5-0.4-0.3-0.8c0.5-0.6,1-1.7,1.9-1.5c2.6,0.9,5.6,0.4,7.7-1.4c1.2-1.1,0.9-2.9,0.3-4.2
		c-1.1-3.5-5.7-3.1-8.6-2.5c-0.3,0.1-0.6,0-0.8-0.2c-0.2-0.3-0.2-0.6,0-0.9c0.4-0.8,0.8-1.7,1-2.5c0.4-1.1,0.8-2.2,1.2-3.2
		c0.2-1,1-1.1,1.9-0.9c1.7,0.2,3.4,0.1,5.1-0.1c1.4,0-0.2,1.3-0.5,1.8c-1.1,1.1-3,0.6-4.5,0.8c-1,0.1-1.1,0.1-1.3,1.1
		c-0.2,0.6-0.4,1.1-0.4,1.7c4.9-0.5,7.7-1.5,9.5,4.2c1.1,3.9-2.8,6.8-5.9,8.2C104.8,351.2,102.6,351.4,100.5,350.8z"/>
	<path d="M129.6,337.4c2-1.4,4.4-3.5,7-2.1c1.8,0.8,3.1,2.5,3.6,4.4c1,3.8-2.7,6.8-6.1,7.7c-2.8,0.9-5-0.7-6.5-2.9
		c-0.8-1.3-1.1-3-0.8-4.5c0-4.5,3.2-8.4,6.9-10.8c2.7-1.4,2.6-0.3,0.4,1c-2.5,1.6-4.1,4.2-4.5,7.1L129.6,337.4z M137.8,341.7
		c0.2-2.8-2.4-5.4-5.2-4.7c-1.6,0.5-3.9,1.7-3.4,3.7c0.4,3.1,4,6.4,7.2,4.3C137.6,344.3,137.8,343,137.8,341.7L137.8,341.7z"/>
	<path d="M154.1,337.3c-0.1,0.1-0.3,0.2-0.5,0.1c-0.2-0.1-0.3-0.2-0.3-0.4c0.1-1,1.5-2.4,1.7-3.3c0.2-0.8,1-1.2,1.7-1
		c1.9,0.1,3.8,0.1,5.7,0.1c1.3,0,2.6-0.1,3.9-0.1c0.2,0,0.6,0.1,0.6,0.3c0,0.2,0,0.4-0.1,0.5c-0.7,1-1.3,2.1-1.7,3.3
		c-1.5,3.6-3.3,7-5.2,10.4c-0.7,1.3-1.5,2.4-2.5,3.4c-0.5,0.5-0.9-0.1-0.7-0.6c0.5-1,1.3-2,1.8-3c1.6-3.4,3.7-6.5,5-10
		c0.5-1.5-1.6-1.2-2.5-1.3c-1.6,0-3.2,0-4.8,0.1C155.2,335.8,154.6,336.5,154.1,337.3z"/>
	<path d="M185.3,347.1c-5.9-0.4-6.8-5.3-2.3-9.1c0.4-0.4,0.4-0.5-0.1-0.8c-0.9-0.3-1.6-0.9-1.9-1.8c-0.3-0.9-0.2-1.8,0.2-2.6
		c1.1-1.8,2.4-3.8,4.6-4.4c2-0.8,4.3-0.2,5.6,1.5c1.7,2.3,0.3,4.4-1.5,6.1c-0.4,0.5-0.5,0.6,0,1c0.6,0.5,1.2,1.1,1.6,1.8
		c0.7,1.1,1,2.4,0.7,3.7c-0.3,1.3-1.1,2.4-2.2,3c-0.9,0.9-2.1,1.4-3.3,1.5C186.3,347,185.8,347.2,185.3,347.1z M190,343.1
		c-0.3-7.3-10.2-4.5-7.2-0.1c1.4,1.7,3.7,1.7,5.7,1.6c0.4,0,0.8-0.1,1.1-0.4S190.1,343.5,190,343.1z M187.3,336.1
		c1.2-0.1,2.1-1,2.3-2.1c0.2-1.1-0.4-2.3-1.4-2.8c-0.7-0.3-1.4-0.6-2.2-0.7c-2.5-0.5-4,2-2.3,3.8C184.8,335.2,186,335.8,187.3,336.1
		z"/>
	<path d="M208.3,344.8c-1.7-1.1-2-3.4-2.2-5.3c0-2.7,2.3-4.3,4.1-6c3.8-3,8.2,0.7,8.7,4.8c1.8,6.5-3.3,12.3-9.6,13.1
		c-0.6,0.2-2.9,0.2-2.1-0.9c0.6-0.7,1.2-1.7,2.2-1.3c1.3,0.3,2.6,0.1,3.8-0.5c0.8-0.4,2.3-1.1,2.8-2c0.6-1.2,0.9-2.6,0.8-3.9
		c0-0.1-0.1-0.1-0.2-0.1C214,344.8,211.8,346.8,208.3,344.8z M208.4,338.8c0.9,4.7,3.8,5.6,7.9,3.1c0.3-0.2,0.4-0.3,0.4-0.6
		c0-2.7-1.5-5.6-4.1-6.5c-1.2-0.5-2.3,0.3-3.1,1.1C208.5,336.6,208.1,337.8,208.4,338.8L208.4,338.8z"/>
	<path d="M247.8,339.4c-0.1,8.5-14.9,11.7-14.6,1.4c-0.1-1.4,0.3-2.9,1.3-4c1.5-2.1,3.4-3.8,6-4
		C244.6,332.3,248.2,335.1,247.8,339.4z M238,335.4c-2,0.2-2.2,2-2.2,3.6c-0.2,2.9,2,5.9,5,5.8c3.1-0.2,4.8-1.1,4.6-4.5
		C245.2,336.7,241.3,334.7,238,335.4L238,335.4z"/>
</g>
<g>
	<path d="M13.7,23.2c-1.6,0.6-3.2,1.1-4.7-0.3c-0.5-0.4-1.2-0.4-1.7,0c-1.2,0.6-2.5,0.9-3.9,0.9c-1,0-2-0.1-2.5-1.2
		c-0.4-1.1,0.2-1.8,1.1-2.4c1.7-1.1,3.4-2.1,5.1-3.1c1.8-1,2.3-4.6,0.8-6c-0.3-0.2-0.6-0.4-1-0.3c-1.4,0.2-2.7,0.5-3.6,1.8
		c-0.4,0.7-1.2,1.1-2,1.1c-0.1,0-0.2,0-0.3-0.1S1,13.2,1,13.1c0.2-0.7,0.7-1.4,1.4-1.6c2-1,4.8-2.4,6.3-2.2c2.1,0.3,3.1,1,3,3.4
		c-0.1,2.1-0.2,4.2-0.2,6.3c0,0.6,0,1.2,0.2,1.7c0.2,0.8,1,1.4,1.8,1.4c0.3,0,0.8,0.1,0.9,0.4C14.6,23,14.1,23.1,13.7,23.2z
		 M8.6,19.3c0-0.2-0.1-0.6-0.1-1C8.4,18,8.1,17.8,7.9,18c-1.1,0.7-2.5,1-3.5,1.8c-0.5,0.4-0.7,1-0.4,1.6c0.2,0.6,0.7,1.1,1.4,1.1
		C8,22.6,8.5,21.6,8.6,19.3z"/>
	<path d="M28.6,23.4c-0.6,0.1-1.2,0.3-1.8,0.4c-0.2,0-0.9-0.2-1.1-0.3c-2.5-1.8-2.9,0.1-4.7,0.3c-0.3,0-0.8,0.1-0.9-0.3
		c-0.1-0.4,0.3-0.5,0.5-0.7c0.7-0.4,0.9-1.1,1-1.8c0.1-0.9,0.1-1.7,0.1-2.6c0.1-2.6-0.1-5.3,0.2-7.9c0.3-2.2-0.2-4.4-0.2-6.6
		c0-0.9-0.4-1.7-1.3-2c-0.2-0.1-0.5-0.1-0.5-0.4c0-0.3,0.2-0.5,0.5-0.6c1.2-0.4,2.5-0.6,3.8-0.7c0.4,0,0.7,0.3,0.5,0.7
		c-0.7,1.2-0.4,2.5-0.4,3.8c0,1.6,0,3.2,0,4.8c0,0.8,0.4,1.1,1.1,0.7c0.9-0.5,2-0.7,3-0.9c1.9-0.5,3.4,0.2,4.5,1.6
		C35.5,14.3,34.4,22.1,28.6,23.4z M30.6,13.4c-0.5-1.1-1.4-2.2-2.9-2.1c-2.5,0.1-3.3,1-3.5,3.5c0,0.5,0,1-0.1,1.5
		c-0.3,2.6,0.7,4.5,3.1,5.7c1,0.5,2.4,0.4,2.8-0.4C31.4,19,31.8,16.2,30.6,13.4z"/>
	<path d="M51.3,20.6c0.2,0.4-0.1,0.6-0.3,0.8c-1.4,0.9-2.8,1.7-4.5,2c-0.4,0.1-0.9,0.1-1.3,0.3c-1.7,0.5-3,0-3.9-1.5
		c-2.2-3.7-1.1-11.1,4.9-12.2c1.7-0.3,3.2-0.8,4.5,0.7c0.9,1.1,1.2,2,0.5,2.5c-1,0.8-2.2,0.6-3-0.6c-0.6-0.9-1.3-1.6-2.5-1.5
		c-1.2,0.1-1.9,1-2.3,2.8c-0.1,0.3-0.1,0.6-0.1,0.9c-0.1,0.8-0.1,1.6-0.2,2.4c0.1,1.7,0.6,3.4,2.2,4.5c0.8,0.6,2.8,0.4,3.9-0.4
		c0.4-0.3,0.7-0.6,1.1-0.8C50.7,20.3,51.1,20.2,51.3,20.6z"/>
	<path d="M72,22.2c0.1,0.4-0.4,0.6-0.6,0.8c-0.9,0.7-3,0.8-3.7-0.1c-0.5-0.5-0.8-0.5-1.3-0.3c-1.4,0.8-2.9,0.9-4.4,1.3
		c-1.3,0.3-2.6-0.3-3.4-1.6c-1.2-2-1.3-4.1-0.9-6.3c1-4.7,3.7-5.8,8-6.5c0.7-0.1,1,0.2,1.4,0.3c0.6,0.3,0.9,0.3,0.9-0.9
		c0-0.2,0-0.5,0-0.7c-0.1-1.5-0.1-3-0.3-4.5c-0.1-0.9-0.4-1.7-1.4-2c-0.7-0.2-0.5-0.7-0.1-0.9c1.3-0.6,2.6-0.7,4-0.8
		c0.5,0,0.6,0.5,0.3,0.9c-0.4,0.7-0.4,1.4-0.4,2.2c0,4.8,0,9.6,0,14.4c0,0.8-0.2,1.6-0.1,2.5c0,0.7,0.1,1.5,1.1,1.6
		C71.5,21.7,72,21.8,72,22.2z M67.3,13.7c-0.9-0.8-1.9-1.5-2.9-2.2c-0.9-0.6-2.4-0.3-2.8,0.4c-1.3,2.6-1.8,5.4-0.6,8
		c0.9,1.9,2,2.6,4,2.1c1.8-0.5,2.7-1.4,2.7-3.4c0-0.5,0-1,0-1.5c0-0.4,0-0.9,0-1.3C67.7,15,68,14.2,67.3,13.7z"/>
	<path d="M89.2,20.5c-1.8,1.4-3.7,2.6-6,2.9c-0.7,0.1-1.4,0.5-2.2,0.5c-1.6-0.1-2.6-1.1-3.1-2.5c-1.3-3.2-0.8-6.2,1.1-9
		c0.9-1.4,2.5-1.9,4-2.5c2.6-1,3.8,0.2,5.3,1.5c0.4,0.4,0.6,0.3,0.8,0.5c0.7,0.6,0.1,1-0.5,1.2c-2.2,0.7-4.5,1.5-6.7,2.2
		c-1.5,0.5-1.9,1-1.7,2.6c0.1,0.3,0.1,0.7,0.2,1c0.9,3.2,3.4,4.2,6.2,2.1c0.7-0.5,1.3-1,2.1-1.2c0.2-0.1,0.6-0.2,0.8,0
		C89.7,20.1,89.5,20.3,89.2,20.5z M80.5,14.5c0.2,0.5,0.5,0.4,0.8,0.2c0.9-0.5,1.8-0.8,2.7-1c1.4-0.4,1.5-1.1,0.5-2.1
		c-0.4-0.4-0.9-0.6-1.5-0.6C81.8,11.1,80.1,13.3,80.5,14.5z"/>
	<path d="M99.8,6.6c0,2.8,0.1,2.9,2.9,2.9c0.2,0,0.5,0,0.7,0c0.4,0.1,1.1-0.3,1.3,0.2c0.2,0.5-0.5,0.8-0.9,1.1
		c-0.8,0.7-1.7,0.6-2.7,0.8c-0.6,0.1-1.1,0.2-1.1,0.9c-0.3,2.6-0.4,5.2-0.3,7.9c0,0.7,0.2,1.2,1,1.3c1,0.2,0.8,0.6,0.2,1.2
		c-0.9,0.7-1.7,1.3-3,0.9c-0.7-0.2-1.5,0-2.2,0c-0.3,0-0.6,0-0.7-0.3c-0.1-0.3,0.1-0.6,0.4-0.7c1.9-1.1,1.9-2.9,1.9-4.8
		c0-1.7,0.3-3.4,0.3-5.1c0-1.1-0.4-1.7-1.6-1.6c-0.5,0-1.2,0.2-1.4-0.3c-0.1-0.6,0.6-1.1,1.1-1.2c1.8-0.3,1.9-1.5,1.9-3
		c0-2.4,1.3-4.1,3.3-5.2c1.4-0.8,2.8-0.3,4.2,0.1c0.4,0.1,0.5,0.4,0.2,0.7c-0.5,0.5-1,0.9-1.9,0.9C100.1,2.8,99.9,3.1,99.8,6.6z"/>
	<path d="M110.8,31.5c-1.8-0.4-3.6-1.5-3.9-3.6c-0.4-2.3,1.2-3.5,2.6-4.7c0.2-0.2,0.3-0.5,0.1-0.7c-0.9-1.1,0.1-2.1,1-2.6
		c1.5-0.8-0.3-1.3-0.8-1.8c-3.1-3.3,1.5-8.3,5.1-8.4c0.9-0.1,1.6,0.8,2.5,0.3c1-0.5,2.2-0.1,3.3-0.2c2-0.1-0.5,1.7-1.4,1.6
		c-0.3,0-0.7,0-0.7,0.2c0,0.1,0,0.2,0.1,0.3c1.8,2.9-0.4,5.4-2.7,6.9c-0.9,0.6-2.9,0.8-3.6,1.4c-0.2,0.2-0.4,0.7,0,0.9
		c1.6,0.5,4.4,0.1,5.9,0.6c2.1,0.4,3.8,3.5,2.1,5.4C117.9,30,114.4,31.6,110.8,31.5z M112.2,23.3c-0.5,0-1.2-0.2-1.7,0.1
		c-0.6,0.5-1.4,0.8-1.5,1.6c-0.1,1.1,0.3,2.2,1.2,3c2,1.8,5,1.2,7.3,0.4c2.5-1.3,0-4.5-1.6-4.7C114.6,23.5,113.4,23.4,112.2,23.3
		L112.2,23.3z M115.8,17.8c0.4,0.1,0.8-0.2,1-0.6c0.9-2.2-1.3-5.4-3-5.9c-0.9-0.2-2.4,1-2.7,2C110.3,16.1,113.4,17.7,115.8,17.8
		L115.8,17.8z"/>
	<path d="M142.6,22.3c0,0.6-0.5,0.8-0.9,0.9c-0.4,0.1-0.9,0.2-1.3,0.1c-1.4-0.2-2.7-0.1-4,0.2c-0.4,0.1-1.1,0.3-1.3-0.3
		c-0.2-0.5,0.4-0.7,0.8-0.9c0.9-0.4,1.1-1.1,1.2-1.9c0.3-2.8,0.5-5.2,0.1-7.9c-0.2-1.7-0.8-2.2-2.4-1.6c-1.2,0.4-2.3,1-3.4,1.5
		c-0.6,0.2-0.9,0.7-0.9,1.3c0,2,0.1,4.1-0.1,6.1c-0.1,0.9,0.4,1.5,1.3,1.6c0.4,0.1,1,0.3,1,0.8c0,0.5-0.5,0.6-0.9,0.9
		c-0.6,0.5-1.3,0.3-2,0.3c-1,0-2,0-3.1,0c-0.2,0-0.5,0-0.6-0.3c-0.1-0.3,0.1-0.5,0.3-0.6c1.4-0.7,1.4-2.1,1.5-3.4
		c0-3.7,0.1-7.5,0.3-11.2c0.1-1.5-0.1-3.1-0.3-4.6c-0.1-0.9-0.5-1.7-1.5-2c-0.7-0.2-0.6-0.6-0.1-0.9c1.4-0.6,2.9-0.8,4.4-0.8
		c0.4,0,0.6,0.4,0.4,0.8c-0.6,1-0.4,2-0.4,3c0,2.1,0,4.2,0,6.3c0,1.4,0.4,1.6,1.7,1.1c1.2-0.5,2.4-1,3.6-1.6
		c0.7-0.3,1.3-0.4,2.1-0.4c1.4,0,2,0.6,2.2,1.9c0.2,1.7,0.3,3.4,0.1,5.3c0,1,0,2.2,0,3.4c0,0.9,0.3,1.5,1.3,1.6
		C142.1,21.4,142.6,21.7,142.6,22.3z"/>
	<path d="M154.3,22.4c-0.1,0.7-0.8,1.1-1.5,1.2c-1.3,0.1-2.7,0-4,0c-0.6,0-0.7-0.4-0.3-0.8c1.3-0.8,1.3-2.1,1.3-3.4
		c0-1.9,0.1-3.8,0-5.7c0-1-0.3-2-1.5-2.4c-0.6-0.2-0.5-0.6-0.1-0.8c1.1-0.6,2.4-0.7,3.7-0.7c0.5,0,0.5,0.5,0.5,0.9
		c0,1.3,0,2.6,0,3.9c-0.1,1.7,0,3.4-0.2,5.1c-0.1,0.7-0.1,1.5,0.9,1.8C153.7,21.5,154.5,21.6,154.3,22.4z M149.1,2.4
		c0-0.8,1.5-2.2,2.3-2.1c0.7,0.1,1.1,0.7,1,1.8c-0.1,1-0.8,1.8-2,1.9C149.5,4.1,149.1,3.3,149.1,2.4z"/>
	<path d="M163.7,18.2c0.3,2.5,0.1,5.1-0.5,7.6c-0.9,3.3-5.2,5.7-8.5,5.3c-0.3,0-0.6-0.1-0.8-0.4c-0.1-0.3,0-0.7,0.3-0.8
		c0.8-0.7,1.5-1.3,2.7-0.8c0.7,0.3,1.4,0.4,2.1,0.1s1.2-0.9,1.4-1.6c1.1-2.5,0.6-5,0.6-8.3c0-1.3,0.2-3.1,0.3-5c0-0.4,0-0.8,0-1.2
		c-0.2-1.3-0.5-1.5-1.8-1.4c-0.4,0-0.9,0.3-1.1-0.2c-0.2-0.5,0.4-0.6,0.6-0.9c0.8-0.7,1.8-0.5,2.7-0.7c0.7-0.2,1.7-0.6,2.2-0.3
		c0.7,0.4-0.3,1.1-0.2,1.8C163.9,13.6,163.6,15.9,163.7,18.2z M160.6,2.4c0-0.8,1.5-2.2,2.3-2.1c0.7,0.1,1.1,0.7,1,1.8
		c-0.1,1-0.9,1.8-2,1.9C161,4.1,160.6,3.3,160.6,2.4z"/>
	<path d="M184.6,21.8c0,0.5-0.5,0.6-0.8,0.8c-1.3,0.8-2.5,1.8-4.1,1c-0.5-0.2-1-0.4-0.6-1.1c0.3-0.5,0.2-0.9-0.7-1.7
		c-1.4-1.4-1.8-1.8-2.9-2.5c-0.5-0.3-1-0.7-1.5-0.7c-0.3,0-0.4,0.9-0.4,1.3c-0.2,0.9-0.2,1.2-0.5,2.1c-0.2,0.7-0.3,1,0.4,1.1
		c0.5,0,1,0,1.5,0.1c0.4,0,0.8,0.2,0.9,0.6c0.1,0.5-0.2,0.7-0.6,0.9c-0.6,0.3-1.3,0.5-1.9,0.3c-0.8-0.2-1.7-0.4-2.6-0.4
		c-0.7,0-0.9-0.3-0.5-1c1-1.8,1-3.8,1-5.8c0-1.9,0-5,0.1-7c0-2.2,0.1-3.1,0-5.2c0-1-0.1-1.9-0.7-3c-0.3-0.7,0.9-1.2,1.6-1.4
		C172.6,0,172.9,0,173,0c0.6,0,1.1,0,1.4,0.5c0.3,0.5-0.1,0.9-0.4,1.2c-0.4,0.4-0.6,0.8-0.5,1.4c0.3,3,0.3,6,0,9.1
		c0,0.1,0,0.2,0,0.4c0.1,1.9,0.4,2,2,1.1c0.7-0.4,1.5-0.9,2.2-1.4c0.4-0.2,0.7-0.5,0.7-1c0.1-1,0.8-1.4,1.7-1.5c0.6-0.1,1.2,0,1.8,0
		c0.4,0,0.8,0,0.9,0.4c0.2,0.5-0.2,0.7-0.5,1c-0.9,0.8-2.1,1-3.2,1.5c-0.8,0.4-1.5,0.8-2.3,1.3c-1.1,0.6-1.2,1.1-0.3,1.9
		c2.2,2.1,4.2,4.5,7.3,5.4C184.1,21.3,184.6,21.4,184.6,21.8z"/>
	<path d="M195.4,22.5c-0.2,0.7-0.9,1.2-1.6,1.2c-1.3-0.1-2.5,0-3.8,0c-0.2,0-0.5,0-0.6-0.3c-0.1-0.3,0.1-0.5,0.3-0.6
		c1.1-0.7,1.2-1.8,1.3-2.9c0.1-4,0.1-7.9,0.3-11.9c0.1-1.4-0.1-2.9-0.3-4.3c-0.1-0.9-0.4-1.7-1.4-2c-0.8-0.2-0.5-0.7,0-0.9
		c1.2-0.5,2.6-0.6,3.9-0.7c0.4,0,0.6,0.3,0.5,0.6c-0.9,1.9-0.2,3.9-0.4,5.8c-0.4,4.4,0.1,8.8-0.2,13.2c-0.1,0.7-0.1,1.6,1,1.9
		C194.9,21.6,195.6,21.8,195.4,22.5z"/>
	<path d="M226.1,22.4c-1.1,0.9-2.2,1.7-3.8,1.3c-1.1-0.3-2,0.1-3,0.1c-0.6,0,0.1-0.6,0.4-0.7c0.9-0.4,1.1-1.1,1.2-1.9
		c0.2-2.4,0.2-5-0.2-7.4c0-0.2-0.1-0.4-0.1-0.6c-0.6-2.3-1.4-2.6-3.4-1.4c-1.6,0.9-2.4,2-2.3,4c0.1,1.6-0.1,3.3,0,4.9
		c0,0.7,0.1,1.3,1,1.2c0.3,0,0.6,0.1,0.6,0.5c0,0.3-0.2,0.4-0.3,0.6c-0.7,0.5-1.5,0.7-2.3,0.8c-0.6,0-1.3,0-1.9,0
		c-0.3,0-0.7,0.1-0.9-0.2c-0.2-0.4,0.3-0.5,0.5-0.7c0.4-0.4,0.5-0.9,0.5-1.4c-0.1-2.4,0.1-4.7,0.3-7.1c0.1-0.7-0.1-1.4-0.5-2
		c-0.9-1.5-1.5-1.7-3-0.8c-0.2,0.1-0.3,0.2-0.5,0.3c-2.6,1.4-2.4,1-2.2,4.4c0.1,1.3,0.1,2.6,0,3.9c-0.1,2-0.1,2.1,1.9,2.3
		c0.1,0,0.2,0.1,0.1,0.2c-0.9,1.1-1.9,1.5-3.2,1.4c-1.1-0.1-2.2-0.2-3.3-0.2c-0.2,0-0.5,0.1-0.6-0.2c-0.1-0.3,0.2-0.4,0.3-0.6
		c0.1-0.2,0.3-0.4,0.4-0.4c2.3-0.6,1.8-2.5,1.8-4c0-1.6-0.3-3.2-0.3-4.8c0-1.2-0.5-1.7-1.6-1.6c-0.3,0-0.8,0.2-0.9-0.3
		c-0.1-0.4,0.3-0.6,0.6-0.8c1.1-0.6,2.2-1.3,3.3-1.9c1-0.5,1.2-0.3,1.3,0.8c0.1,1.5,0.1,1.6,1.5,1.2c0.8-0.3,1.5-0.6,2.2-1
		c2.2-1.3,3.2-1.4,4.6,0.3c1,1.3,1.8,1,3,0.4c1-0.5,1.9-1.2,2.9-1.6c1.1-0.4,1.9-0.2,2.6,0.7c0.9,1.3,1.2,2.8,1.2,4.4
		c0,1.9,0,4,0.1,5.9c0,1.6,0,1.6,1.7,1.9C225.8,22.1,226,22.1,226.1,22.4z"/>
	<path d="M247.8,22.7c0,0.6-0.5,0.8-1,0.8c-1.7,0-3.5,0.1-5.2,0.5c-0.3,0.1-0.7,0.1-0.8-0.3c-0.1-0.4,0.2-0.6,0.5-0.7
		c1.2-0.5,1.3-1.7,1.3-2.8c0-2.3,0.3-4.6,0.2-6.9c-0.1-2.2-1-2.7-3-1.7c-0.9,0.5-1.8,0.8-2.7,1.3c-0.8,0.4-1.2,1-1.1,1.9
		c0.3,1.8,0.2,3.6,0.2,5.4c0,1,0.3,1.9,1.4,2.1c0.3,0.1,0.7,0.3,0.7,0.7c0,0.5-0.4,0.6-0.8,0.8c-0.4,0.2-0.9,0.4-1.4,0.3
		c-1.4-0.3-2.7-0.3-4.1-0.3c-0.4,0-0.7-0.3-0.3-0.5c2.1-1.3,1.6-3.3,1.6-5.2c0-1.4-0.1-2.8-0.2-4.2c0-0.9-0.3-1.4-1.3-1.5
		c-0.3,0-0.8-0.1-0.8-0.5c0-0.4,0.3-0.6,0.6-0.7c0.9-0.4,1.6-1.1,2.4-1.7c1-0.6,1.4-0.5,1.7,0.6c0.6,1.9,0.8,2,2.6,1.1
		c1-0.5,2-1,3.1-1.5c2.4-1,3.8-0.1,3.8,2.5c0,1.2,0,2.4,0,3.5c0,0,0,0,0,0c0,1.4,0,2.8,0,4.2c0,0.9,0.3,1.8,1.4,1.9
		C247.4,21.8,247.8,22.1,247.8,22.7z"/>
	<path d="M14.2,48.9c0.1,1.5-0.2,3-0.8,4.4c-0.9,2.2-2.5,3.6-4.8,4.2c-1.3,0.3-2.5,0.9-4,0.4C2.1,57,1.2,54.5,1,52.1
		c0-0.7,0.1-1.4,0.2-2.1c1-4.9,3.6-6.1,8.1-6.7c1.6-0.2,3,0.8,3.8,2.3C13.8,46.7,14.2,47.8,14.2,48.9z M11.3,50.3c0-1-0.2-2-0.7-2.8
		c-0.9-1.4-1.9-3-3.7-2.5c-1.7,0.5-2.4,1-2.6,2.8c-0.1,0.6-0.2,1.9-0.2,2.5c-0.3,2.6,1.2,5,3.5,6c1.3,0.6,2.3,0.1,3-1.1
		C11.4,53.7,11.3,52,11.3,50.3z"/>
	<path d="M32.9,51.7c-0.4,2.9-2.5,5.2-5.3,5.9c-1.3,0.3-2.6,0.2-3.8-0.4c-0.6-0.3-0.6,0.9-0.6,1.5c0,0.5,0,1.1,0,1.6
		c0,0.6,0,1.2,0,1.8c0,0.8,0.3,1.2,1.1,1.4c0.7,0.1,0.8,0.5,0.2,1c-0.9,0.7-1.7,1.5-3.1,1c-0.7-0.1-1.5-0.1-2.2,0
		c-0.3,0-0.6,0-0.7-0.3c-0.1-0.1-0.1-0.3,0-0.4s0.2-0.2,0.3-0.3c2.1-1.1,1.8-3,2-4.9c0.4-4,0.4-8.1,0-12.1c-0.1-1-0.4-2-1.6-2.4
		c-0.6-0.2-0.4-0.6,0-0.8c1-0.5,2.1-0.7,3.2-0.6c0.4,0,0.5,0.4,0.6,0.8c0.2,0.7,0.7,0.9,1.3,0.5c1.3-0.6,2.7-1,4.1-1.2
		c1.4-0.4,2.9,0.2,3.5,1.5C33.2,47.3,33.5,49.5,32.9,51.7z M28.3,46c-1.2-1-2.3-0.4-3.5-0.1c-0.9,0.3-1.5,1.2-1.4,2.2
		c0,1.3,0,1.6,0.1,3c-0.1,1,0.1,2,0.5,2.9c0.4,0.8,1,2.1,1.9,2.4c1.3,0.6,2.8,0.1,3.5-1.2c0.5-1.2,0.8-2.5,0.8-3.9
		C30.6,49.3,29.8,47.2,28.3,46z"/>
	<path d="M52.3,64.3c-0.7,1-2,1.5-3.2,1.2c-0.7-0.1-1.3-0.1-2,0c-0.4,0-0.9,0.1-1.1-0.3c-0.2-0.5,0.3-0.8,0.6-1
		c0.2-0.2,0.5-0.4,0.7-0.6c0.5-0.3,0.7-0.8,0.7-1.3c0-1.6,0-3.2,0.1-4.8c0.1-0.6-0.3-1-0.9-0.6c-1.1,0.4-2.3,0.8-3.5,0.9
		c-1.1,0.4-2.3,0.1-3.2-0.7c-0.5-0.5-0.9-1.1-1.2-1.7c-0.5-1.2-0.8-2.6-0.7-4c0-1.8,0.5-3.5,1.6-4.9c1.8-2.1,4.2-2.7,6.7-2.8
		c1,0.1,2,0,2.9-0.1c0.3-0.1,1,0.1,0.8,0.7c-0.5,1.7-0.7,3.4-0.5,5.2c0.2,3.9,0.1,7.7,0.1,11.6c0,1.1-0.1,2.4,1.6,2.7
		C52.5,63.6,52.6,63.9,52.3,64.3z M44.1,45.2c-0.6,0-1.1,0.3-1.3,0.8c-1.1,2.2-1.3,4.8-0.7,7.2c0.3,1.2,1.1,2.1,2.1,2.7
		c1,0.7,2.1,0.2,3.2-0.2c0.8-0.3,0.7-1.1,0.7-1.8c0.1-1.5-0.1-3,0-4.2C48.4,46.7,46.5,45,44.1,45.2z"/>
	<path d="M68.7,45.6c-0.1,0.9-0.9,1.3-1.7,1.4c-0.5,0.1-0.6-0.4-0.9-0.7c-1.2-1.2-1.6-1.3-3-0.3c-1.8,1.2-1.8,1.2-1.8,4.5
		c0,1.2,0,2.4-0.2,3.5c-0.1,0.7-0.1,1.5,0.8,1.9c0.5,0.2,0.4,0.5,0.2,0.9c-0.4,0.7-1.1,1-1.9,1c-0.9,0-1.9-0.1-2.8,0
		c-0.3,0-0.6,0-0.7-0.3c-0.1-0.3,0.1-0.5,0.3-0.6c1.1-0.5,1.4-1.5,1.5-2.6c0.1-2,0.1-3.9,0.2-5.9c0-1-0.2-1.7-1.4-1.6
		c-0.3,0-0.8,0-0.9-0.4c-0.1-0.5,0.3-0.7,0.6-0.9c0.9-0.5,1.9-1,2.8-1.5c1.1-0.6,1.5-0.3,1.5,0.9c0,1,0.4,0.9,1.1,0.6
		c0.7-0.4,1.5-0.9,2.2-1.4c0.9-0.6,1.8-0.6,2.7-0.4C68.4,43.9,68.8,44.7,68.7,45.6z"/>
	<path d="M81.1,56c-1,0.9-1.9,1.7-3.6,1.7c-0.8-0.1-1.8-0.2-2.7-0.8c-0.5-0.4-1.4-0.6-0.9-1.5c0.5-0.8,1.2-1,2-0.6
		c0.8,0.5,1.7,0.7,2.6,0.8c0.8,0.1,1.6,0.2,2-0.6c0.4-0.8,0.1-1.6-0.5-2.3c-1-1.1-2.4-1.6-3.6-2.4c-0.8-0.5-1.7-1-2.2-1.9
		c-0.6-1-0.6-1.8,0.2-2.7c1.1-1.2,2.2-2.5,4-2.7c0.9-0.1,1.7,0.1,2.4,0.5c0.7,0.4,1.2,0.9,0.7,1.8c-0.5,0.9-1.3,1.2-2.2,0.6
		c-0.6-0.4-1.2-0.8-1.9-0.9c-0.6-0.1-1.2-0.1-1.4,0.5c-0.3,0.6,0.1,1,0.5,1.3c1.1,1,2.3,1.8,3.6,2.4C83.1,51.1,83.6,53.7,81.1,56z"
		/>
	<path d="M91,42.2c0.2,3-0.1,6,0.2,9c0.2,1.7,0,3.3,0.2,5c0,0.1,0,0.3-0.1,0.4c-0.5,0.6-1.1,1-1.8,1.3c-0.4,0.1-0.6-0.1-0.6-0.5
		c0-0.5-0.1-1.1-0.1-1.6c-0.1-2.2-0.1-4.4,0-6.5c0-2.6,0.1-5.1,0.3-7.7c0.1-0.4,0.1-0.9,0.1-1.3c0.2-1.4,0.9-2.6,2-3.5
		c0.4-0.4,0.9-0.8,1.3-1.1c0.7-0.7,1.6-1.1,2.6-1.3c0.2,0,0.3,0,0.5,0.1c1.1,0.4,2,1.1,2.8,1.9c1,1,1.3,2.5,0.7,3.8
		c-0.4,1.3-1.5,2.3-2.4,3.3c-0.1,0.1-0.3,0.2-0.4,0.4c-0.4,0.4,0,0.7,0.5,0.8c0.3,0.1,0.7,0.2,1,0.2c1.2,0.2,2.3,0.8,3.2,1.7
		c2.4,2.1,2.1,4.6,0.9,7c-0.7,1.5-1.9,2.8-3.3,3.7c-0.5,0.3-1.2,0.5-1.8,0.4c-0.8,0-1.6-0.1-2.5-0.2c-0.2,0-0.3-0.1-0.5-0.1
		c-1.1-0.5-1.3-1.1-0.4-2l0.1-0.1c1.1-1.1,1.3-1.1,2.4,0c1,1,2.6,1,3.6,0c0.8-1,1.3-2.2,1.3-3.5c0.1-0.7-0.2-1.5-0.7-2
		c-0.9-0.9-2-1.7-3.1-2.3c-0.7-0.3-1.4-0.4-2.1-0.5c-0.4-0.1-0.7-0.2-1.1-0.3c-0.8-0.3-0.9-0.9-0.3-1.5c0.2-0.2,0.4-0.4,0.6-0.6
		c1-0.6,1.9-1.4,2.6-2.4c0.4-0.8,0.4-1.7,0.2-2.5c-0.4-2.4-2.3-3.6-4.4-2.5c-0.5,0.2-0.6,0.6-0.8,1c-0.5,1-0.7,2-0.7,3.1
		C91,41.5,91,41.8,91,42.2z"/>
	<path d="M112,46.6c0.3,2.5-0.4,5,0.3,7.5c0.4,1.4,0.6,1.7,2.3,2c0.4,0.1,1,0,1.1,0.5c0.1,0.5-0.5,0.7-0.9,0.9
		c-1.2,0.5-2.2,0.4-3.4,0.1c-0.9-0.3-1.4-1-1.6-1.9c-0.4-1.7-0.2-3.4-0.2-5.1c0-1.2,0-2.3,0-3.5c0-0.9-0.5-1.5-1.6-1.4
		c-0.3,0-0.6,0-0.7-0.3c-0.1-0.3,0.2-0.4,0.4-0.6c1.7-1,2.4-2.3,3.6-3.9c0.2-0.3,0.4-0.7,0.8-0.5c0.5,0.2,0.3,0.6,0.3,1
		c-0.2,2-0.1,2.2,2,2.3c0.9,0.1,1.8,0,2.7,0c0.2,0,0.4,0,0.5,0.2c0.1,0.2-0.1,0.4-0.2,0.5c-0.7,0.8-1.6,1.3-2.7,1.3
		c-0.5,0-1.1,0-1.6,0.1C112.3,45.7,111.9,46,112,46.6z"/>
	<path d="M137.4,57c-1,0.4-2,0.7-3.1,0.5c-0.6-0.1-1.1-0.6-1.2-1.2c-0.2-1-0.8-1-1.6-0.6c-1.1,0.5-2.2,1.1-3.3,1.6
		c-0.5,0.2-1,0.4-1.5,0.4c-1.7,0.1-2.4-0.6-2.5-2.3c0-2.6,0-5.3,0-7.9c0-1.2-0.1-2.3-1.3-3c-0.6-0.3-0.4-0.9,0.2-1
		c1.2-0.1,2.4-0.1,3.5,0.1c0.8,0.1,0.7,1,0.6,1.7c-0.2,2.8-0.5,5.6-0.3,8.5c0,0.6-0.1,1.3,1.3,1.7c0.5,0.2,1.1,0.2,1.6,0
		c0.7-0.3,1.5-0.7,2.1-1c0.9-0.5,1.2-1.2,1.2-2.2c0.1-1.9,0.1-3.5,0-5.3c-0.1-1.2-0.3-2.3-1.9-2.6c-0.2,0-0.2-0.3-0.1-0.3
		c1.4-0.8,2.7-0.8,3.9-0.9c0.5,0,0.5,0.6,0.5,1c0.2,3.1,0,6,0.1,9.2c0,1.2,0.1,2.4,1.5,2.8C137.8,56.4,137.8,56.8,137.4,57z"/>
	<path d="M158.1,44.2c-0.1,0.1-0.2,0.2-0.3,0.2c-2,0.7-2.6,2.7-3.6,4.3c-1.1,1.8-2.1,3.6-3.2,5.4c-0.3,0.5-0.5,1-0.6,1.5
		c-0.2,0.8-0.8,1.3-1.5,1.7c-0.7,0.4-1.2,0.2-1.5-0.6c-0.8-2.8-2-5.4-3.1-8.1c-0.2-0.6-0.5-1.5-0.7-2.1c-0.3-1-0.8-1.8-1.9-1.9
		c-0.2,0-0.2-0.2-0.1-0.3c1.4-0.8,3-0.6,4.5-0.8c0.7-0.1,0.9,0.5,0.7,1c-0.4,0.9-0.2,1.7,0.2,2.5c1,2,1.6,4.2,2.5,6.2
		c0.1,0.3,0.1,0.8,0.6,0.8c0.3,0,0.4-0.4,0.6-0.7c1.1-1.8,2.2-3.6,3.2-5.5c1-2,0.6-2.8-1.6-3.2c-0.2,0-0.4,0-0.4-0.3
		c0-0.2,0.2-0.3,0.4-0.4c0.9-0.4,1.8-0.5,2.7-0.6c0.9-0.1,1.9-0.1,2.8-0.2c0.2,0,0.5-0.1,0.6,0.2C158.5,43.8,158.3,44,158.1,44.2z"
		/>
	<path d="M186.7,44.2c-1.5,0.6-2,2-2.6,3.3c-1.1,2.3-2.3,4.6-3.5,6.9c-0.4,0.8-0.4,1.8-1.1,2.5c-0.4,0.4-0.9,0.9-1.5,0.7
		c-0.6-0.2-0.4-0.8-0.5-1.2c-0.7-2.1-1.4-4.3-2.2-6.4c-0.4-1-0.8-0.3-1,0.1c-0.9,1.8-1.7,3.6-2.5,5.4c-0.3,0.8-0.7,1.6-1.5,2
		c-0.5,0.3-1,0.3-1.2-0.4c-0.5-2.7-1.7-5.3-2.5-7.9c-0.3-0.8-0.5-1.7-0.7-2.5c-0.4-1.2-0.7-1.7-2.4-2.2c-0.8-0.3,1.3-0.8,2-0.9
		c1.7-0.3,2.1,0,2.6,1.6c1,2.8,2,5.5,2.9,8.3c0.1,0.2,0.1,0.6,0.5,0.6s0.4-0.3,0.5-0.5c0.8-1.5,1.6-3,2.4-4.6c0.5-1-0.2-2-0.3-2.9
		c-0.1-1.1-0.9-1.3-1.8-1.4c-0.2,0-0.2-0.3-0.1-0.3c1.5-0.9,2.9-0.8,4.4-0.8c0.6,0,0.7,0.6,0.5,1.1c-0.3,0.7-0.2,1.4,0,2
		c0.8,2.3,1.6,4.6,2.4,6.9c0.1,0.3,0.1,0.7,0.5,0.7c0.1,0,0.3-0.2,0.4-0.4c1-2,2.1-4,3.1-6c0.3-0.6,0.3-1.2,0.2-1.8
		c-0.1-0.7-0.5-1.2-1.3-1.2c-0.3,0-0.7,0.2-0.7-0.3c0-0.2,0.1-0.3,0.2-0.4c0.7-0.4,1.5-0.6,2.2-0.6c0.8,0,1.6-0.1,2.4-0.1
		c0.3,0,0.8-0.2,0.9,0.2C187.3,43.7,187,44.1,186.7,44.2z"/>
	<path d="M207.3,44c-0.1,0.1-0.3,0.3-0.5,0.4c-2.8,0.9-2.5,1.7-5.8,5.1c-0.5,0.4-0.2,1,0,1.5c1.1,2.2,2.6,4.5,5.2,5.5
		c0.3,0.1,0.5,0.3,0.5,0.6c0,0.4-0.3,0.5-0.6,0.6c-1.4,0.2-2.8,0.3-4.1,0c-0.5-0.1-0.9-0.5-1-1c-0.4-1.3-1.2-2.3-1.8-3.5
		c-0.5-0.8-1-0.8-1.5,0c-0.2,0.3-0.5,0.6-0.7,0.9c-0.5,1-0.9,2,0.1,2.9c0.4,0.4,0.4,0.8-0.3,0.8c-1.4,0-2.9,0.2-4.3-0.2
		c-0.3-0.1-0.8-0.1-0.8-0.5c-0.1-0.4,0.4-0.5,0.6-0.6c2.5-0.9,3.5-3.2,5.2-4.9c0.3-0.3,0.3-0.8,0-1.2c-0.9-1.7-1.7-3.5-2.8-5.1
		c-0.6-0.9-1.8-0.7-2.2-1.2c-0.5-0.6,3.3-0.8,4.9-0.6c0.6,0.1,0.7,0.6,0.6,1.1c-0.3,1.8,0.8,2.8,1.6,4.1c0.2,0.3,0.6,0,0.8-0.1
		c1-0.9,2-1.6,2.2-3.1c0.1-0.7,0-1.2-0.9-1.2c-0.2,0-0.5,0-0.6-0.2c-0.1-0.3,0.3-0.4,0.6-0.5c1.7-0.4,3.5-0.2,5.2-0.2
		C207.5,43.3,207.6,43.7,207.3,44z"/>
	<path d="M228.9,43.9c-0.2,0.4-0.5,0.6-0.9,0.7c-0.8,0.3-1.3,0.9-1.7,1.7c-1.3,2.6-2.8,5-3.9,7.7c-1.2,2.8-2.8,5.4-3.8,8.3
		c-0.5,1.4-1.3,2.5-2.7,3.1c-0.6,0.3-1,0.2-1.4-0.2c-0.9-0.9-0.7-2.7,0.5-3.1c2.1-0.7,2.7-2.4,3.5-4.2c0.3-0.7,0.3-1.6-0.1-2.3
		c-1.2-2.5-2.3-5-3.5-7.5c-0.3-0.6-0.5-1.2-0.7-1.8c-0.3-0.9-0.8-1.6-1.7-1.9c-0.3-0.1-0.3-0.4-0.1-0.5c1.4-0.7,2.9-0.5,4.3-0.6
		c0.6,0,0.9,0.5,0.6,1c-0.4,0.8-0.2,1.5,0.2,2.2c1,1.9,1.9,4,2.8,6c0.1,0.3,0.2,0.7,0.6,0.7c0.4,0,0.5-0.3,0.6-0.6
		c0.9-1.7,1.8-3.3,2.7-5c0.2-0.5,0.3-1,0.3-1.5c0-1-0.2-1.7-1.4-1.7c-0.2,0-0.5,0-0.6-0.3c-0.1-0.3,0.2-0.4,0.4-0.5
		c1.8-0.6,3.7-0.4,5.6-0.6C229.1,43.1,229.1,43.5,228.9,43.9z"/>
	<path d="M246.2,55.7c0,0.1-0.1,0.4-0.2,0.5c-0.6,0.8-1.4,1.2-2.4,1.3c-3.1,0.3-6.1-0.1-9.2,0.1c-0.3,0-0.6,0-0.7-0.3
		c-0.1-0.3,0.1-0.4,0.3-0.6c3.3-3,5.6-6.7,8.2-10.3c0.2-0.2,0.5-0.5,0.3-0.8c-0.2-0.3-0.5-0.3-0.8-0.3c-2.1,0.2-4.2,0.2-6.3,0
		c-0.3,0-0.7,0-1-0.1c-0.6-0.2-0.7-0.6-0.1-0.9c1.1-0.6,2.1-1.5,3.6-1.2c2.3,0.3,3.9,0.5,6.2,0.3c1-0.1,1.6-0.4,1.7,0.1
		c0.1,0.4-0.3,0.7-0.6,0.9c-2.3,2.2-4,4.9-5.8,7.4c-0.5,0.7-0.8,1.4-1.1,2.2c-0.4,1-0.2,1.4,0.8,1.4c0.5,0,1.1,0,1.5,0
		c1.7-0.2,3.4,0.2,5.1,0C245.9,55.5,246.2,55.4,246.2,55.7z"/>
</g>
<g>
	<g>
		<path d="M127.2,279.9c0.1,1.3-0.4,2.5-1.4,3.3c-0.4,0.4-0.8,0.8-1.2,1.2c-0.1,0.1-0.2,0.2-0.2,0.4c0,0.1,0,0.3,0.1,0.4
			c0.7,0.9,1.3,1.8,2,2.8c0.1,0.2,0.3,0.4,0.6,0.4c0.2,0,0.5-0.1,0.6-0.3c0.9-0.9,1.9-1.9,2.8-2.9c0.3-0.3,0.4-0.7,0.3-1.1
			c0-0.4,0.2-0.8,0.4-1.1c0.3-0.3,0.6-0.6,0.9-0.9c0.1-0.1,0.3-0.2,0.5-0.1c0.2,0,0.3,0.2,0.3,0.3c0.4,0.7,0.3,1.7-0.3,2.3
			c-0.6,0.6-1.2,1.2-1.8,1.8c-0.4,0.5-0.8,1-1.2,1.5c-0.3,0.4-0.6,0.8-1,1.2c-0.3,0.2-0.5,0.6-0.5,0.9c0,0.4,0.1,0.7,0.4,1
			c0.8,1.1,1.9,1.9,3.1,2.4c1.2,0.4,2.5,0.2,3.4-0.6c0.3-0.4,0.6-0.7,0.9-1.1c0.2-0.3,0.5-0.6,0.7-0.8c0.1-0.1,0.3-0.2,0.5-0.1
			s0.1,0.4,0,0.5c-0.4,0.6-0.7,1.2-1.2,1.8c-0.5,0.7-1.2,1.3-1.8,1.9c-1.1,1-2.6,1.3-4,0.9c-1.2-0.3-2.3-1-3.1-2
			c-0.3-0.4-0.7-0.8-1.1-1.2c-0.3-0.4-0.6-0.4-0.9,0c-0.6,0.4-1.1,0.9-1.7,1.4c-0.6,0.6-1.3,1-2.1,1.4c-0.8,0.4-1.7,0.7-2.6,1
			c-1.6,0.4-3.3-0.6-3.9-2.1c-0.2-0.7-0.1-1.4,0.2-2.1c0.7-1.5,1.6-2.8,2.8-3.9c0.6-0.6,1.2-1.1,1.8-1.7c0.2-0.1,0.3-0.3,0.2-0.5
			c0-0.2-0.1-0.4-0.3-0.5c-0.5-0.4-1-0.8-1.4-1.3c-1.5-1.8-0.7-4.7,0.9-6c0.3-0.3,0.6-0.5,1-0.7c0.5-0.3,0.9-0.5,1.4-0.8
			c1.1-0.7,2.5-0.7,3.7-0.1c1.2,0.6,1.9,1.8,1.9,3.2C127.2,279.7,127.2,279.8,127.2,279.9z M119.5,293.7c0.1,0,0.2,0,0.3,0
			c1.3-0.3,2.4-0.8,3.5-1.5c0.4-0.3,0.9-0.6,1.3-0.9c0.1-0.1,0.2-0.3,0.3-0.4c0-0.2,0-0.4-0.1-0.5c-0.3-0.4-0.5-0.8-0.8-1.2
			c-0.3-0.4-0.6-0.8-0.9-1.1c-0.3-0.4-0.6-0.7-0.9-1c-0.3-0.2-0.6-0.2-0.9-0.1c-0.7,0.4-1.4,0.9-2.1,1.5c-0.5,0.4-0.9,0.9-1.3,1.4
			c-0.3,0.4-0.6,0.9-0.8,1.4c-0.1,0.4-0.1,0.8,0.1,1.2C117.6,293.2,118.5,293.7,119.5,293.7L119.5,293.7z M122,278.6
			c-0.6,0-1.1,0.2-1.6,0.5c-0.7,0.4-1,1.2-0.7,2c0.4,0.9,1.2,1.6,2,2c0.3,0.1,0.6,0.3,0.9,0.5c0.3,0.2,0.7,0.2,1-0.1
			c0.4-0.3,0.7-0.6,1.1-0.9c0.3-0.3,0.4-0.6,0.4-1c0-0.5-0.2-1.1-0.4-1.5C124.2,279.1,123.1,278.5,122,278.6L122,278.6z"/>
	</g>
	<g>
		<path d="M76,293.6c-0.4,0.7-0.9,1.2-1.6,1.6c-1.9,1-4.1,1.3-6.1,0.7c-2.1-0.7-4.4-0.8-6.5-0.6c-0.9,0.2-1.9,0.4-2.8,0.6
			c-0.3,0.1-0.5,0.2-0.7-0.1c-0.2-0.3-0.1-0.6,0.1-0.8c0.8-1,1.8-2,2.8-2.8c1.2-1.2,2-2.8,2.1-4.5c0-0.8-0.2-1.6-0.6-2.3
			c-0.2-0.3-0.5-0.4-0.8-0.4c-0.7-0.1-1.4-0.1-2.1-0.1c-0.4,0-0.7,0-1.1,0c-0.5,0-0.7-0.3-0.4-0.8c0.4-0.8,1.3-1.4,2.2-1.4
			c0.8,0,0.8-0.1,0.7-0.9c-0.5-1.7-0.3-3.5,0.5-5.1c0.7-1.3,1.6-2.5,2.8-3.5c1-0.8,2.3-1.3,3.6-1.2c0.9,0,1.9,0.1,2.8,0.3
			c0.9,0.3,1.6,0.9,2.2,1.7c0.1,0.1,0.1,0.2,0.1,0.2c0.8,0.8,0.7,1.4-0.2,2.5c-0.4,0.5-0.7,0.5-1.1-0.1c-0.4-0.9-1.2-1.6-2-2.1
			c-1.9-0.8-5.3-0.7-6.7,1.2c-0.3,0.4-0.5,0.9-0.5,1.4c-0.2,1.8,0.3,3.7,1.3,5.2c0.2,0.3,0.5,0.4,0.8,0.4c1.5,0.3,2.9,0.3,4.4,0.1
			c0.5-0.1,0.7,0.2,0.7,0.6c0,0.8-0.6,1.5-1.3,1.6c-1,0.1-1.9,0.2-2.9,0.2c-0.4,0-0.5,0.1-0.6,0.5c-0.2,1.9-1,3.7-2.1,5.3
			c-0.3,0.4-0.5,0.8-0.8,1.2c-0.1,0.1-0.2,0.3-0.1,0.5c0.1,0.2,0.4,0.2,0.5,0.1c0.8-0.2,1.7-0.3,2.6-0.3c0.5,0,1.1,0,1.6,0.2
			c1.2,0.4,2.5,0.6,3.7,0.8c1.5,0.2,3,0.1,4.4-0.4c0.2-0.1,0.3-0.1,0.5-0.2c0.2-0.1,0.3-0.1,0.5,0C76.2,293.2,76.1,293.4,76,293.6z"
			/>
	</g>
	<g>
		<path d="M21.6,292.1c-0.2,0.6-0.5,1.1-0.9,1.5c-1.1,1.1-2.3,2-3.8,2.6c-0.8,0.3-1.7,0.4-2.5,0.3c-1.3-0.1-2.7-0.4-3.9-0.9
			c-1.8-0.8-3.2-2.3-4.1-4c-0.3-0.5-0.6-1.1-0.8-1.7c0-0.2-0.1-0.3-0.3-0.5c-0.2-0.1-0.3-0.1-0.5-0.1c-1,0-2,0-3-0.1
			c-0.7-0.1-0.8-0.3-0.5-0.9c0.4-0.9,1.3-1.4,2.3-1.1c0.1,0,0.2,0,0.3,0c1,0.1,1.1-0.1,1.3-1c0.2-1.3-0.1-1.3-1.3-1.3
			c-0.4,0-0.8,0-1.2,0c-0.2,0-0.4-0.1-0.5-0.2c-0.1-0.2-0.1-0.4,0.1-0.6c0.4-0.8,1.3-1.3,2.2-1.3c0.8,0,1-0.1,1.2-0.9
			c0.7-2.9,2.4-5.5,4.8-7.3c0.9-0.7,1.8-1.3,2.8-1.9c1.5-0.8,3.3-0.9,4.9-0.2c0.2,0.1,0.8,0.4,0.9,0.5c0.6,0.4,1,0.8,1.7,1.1
			c0.4,0.2,0.7,0.5,0.7,0.9c0.1,0.4,0,0.8-0.2,1.2c0,0-0.1,0.1-0.1,0.1c-0.8,1.1-0.9,1-1.9,0.1c-1.3-1.4-3.2-2.1-5.1-1.7
			c-0.8,0-1.6,0.2-2.3,0.6c-0.6,0.4-1.1,0.7-1.7,1.2c-1.1,0.8-2,2-2.5,3.3c-0.2,0.8-0.4,1.6-0.5,2.5c-0.1,0.3,0.1,0.5,0.5,0.6
			c2.1,0.2,4.2,0.2,6.2-0.1c0.5,0,1,0,1.5,0c0.6,0,1.2,0,1.9-0.1c0.2-0.1,0.5,0,0.6,0.2c0.1,0.2,0.1,0.5-0.1,0.6
			c-0.6,0.9-1.6,1.5-2.7,1.5c-1.4,0-2.9,0-4.3,0.1c-1.1,0-2.2,0.2-3.3,0.3c-0.1,0-0.3,0.1-0.4,0.2c-0.1,0.1-0.1,0.2-0.1,0.4
			c0,0.3,0,0.5,0,0.8c0,0.2,0.2,0.4,0.4,0.4c1,0.2,2,0.3,3,0.1c1-0.1,2.1-0.1,3.1-0.1c0.9-0.1,1.9-0.1,2.9,0
			c0.6,0.1,0.7,0.2,0.4,0.8c-0.4,0.9-1.3,1.4-2.3,1.3c-0.5,0-1,0-1.5,0c-1.5,0-2.9,0-4.4,0.2c-0.7,0.1-0.8,0.3-0.4,0.9
			c1.1,1.5,2.3,2.9,4.2,3.5c1.2,0.5,2.4,0.7,3.6,0.7c1.1-0.1,2.1-0.4,3.1-0.9c0.4-0.2,0.7-0.6,0.9-0.9c0.2-0.3,0.4-0.5,0.6-0.7
			c0.2-0.2,0.3-0.3,0.6-0.2C21.7,291.6,21.7,291.9,21.6,292.1z"/>
	</g>
	<g>
		<path d="M171.9,279.9c-0.3-0.3-0.4-0.6-0.4-1.5c0.1-1.2,0.6-2.3,1.3-3.2c0.7-1,1.6-1.9,2.6-2.7c0.7-0.4,1.4-0.6,2.2-0.5
			c1.1,0,2.1,0.7,2.4,1.7c0.5,1,0.4,2.2-0.1,3.1c-0.8,1.8-2.3,3.2-4.1,4C174.4,281.7,173.2,281.2,171.9,279.9z M183.7,282.5
			c-1.9,2.5-3.7,5-5.5,7.4c-0.6,0.8-1.3,1.5-2,2.3c-0.6,0.7-1.2,1.4-1.5,2.3c-0.2,0.4-0.5,0.7-0.9,0.8c-0.5,0.2-0.8,0.6-1.4,0.7
			c-0.4,0-0.5-0.2-0.4-0.6c0-0.1,0.1-0.2,0.1-0.2c1.2-1.1,2-2.5,3.1-3.7c0.6-0.8,1.6-2.5,2.3-3.3c1-1.2,2-2.4,3-3.6
			c0.9-1.1,1.7-2.2,2.3-3.5c0.4-0.6,0.8-1.3,1.3-1.8c0.8-1.1,1.5-2.3,2.3-3.4c0.8-1.1,1.6-2.2,2.6-3.1c0.1-0.1,0.3-0.3,0.4-0.4
			c0.3-0.2,0.6-0.2,0.9,0c0.3,0.2,0,0.4-0.2,0.7c-0.3,0.6-0.6,1.1-1,1.7C187.3,277.4,185.6,280,183.7,282.5z M175.7,274.5
			c-1.2,0.2-1.7,0.8-1.7,1.9c-0.1,0.5,0.1,1.1,0.5,1.5c0.4,0.4,0.9,0.7,1.4,0.7c0.9,0.2,1.9-0.3,2.3-1.1c0.3-0.5,0.3-1.2-0.1-1.7
			C177.3,275.2,176.8,274.3,175.7,274.5L175.7,274.5z M191.1,288.4c0.6,0.8,0.7,1.9,0.3,2.8c-0.9,2.4-2.9,4.2-5.4,4.9
			c-0.1,0-0.2,0.1-0.3,0.1c-0.2,0-0.4,0-0.6,0c-0.9,0-1.7-0.3-2.2-1c-0.5-0.7-0.7-1.5-0.5-2.4c0.4-1.7,1.4-3.2,2.7-4.3
			c0.2-0.2,0.4-0.3,0.5-0.5c0.5-0.8,1.5-1.1,2.4-0.8c0.2,0.1,0.4,0.1,0.6,0.1C189.6,287.1,190.5,287.6,191.1,288.4z M189.3,291.8
			c0-0.7-0.3-1.3-0.9-1.7c-0.7-0.3-1.3-0.4-2-0.5c-0.5-0.1-1,0.1-1.3,0.5c-0.3,0.4-0.4,0.8-0.3,1.2c-0.1,0.6,0.1,1.2,0.6,1.6
			c0.4,0.4,1,0.6,1.6,0.5c0.5,0,1-0.2,1.4-0.4C188.9,293,189.3,292.4,189.3,291.8z"/>
	</g>
	<g>
		<path d="M233,298.3c-0.9-0.1-1.7-0.6-2.2-1.4c-0.5-0.8-0.7-1.6-0.7-2.5c-0.2-2,0.2-3.6,0.1-5.6c0-0.4-0.1-0.7-0.3-1
			c-0.4-0.5-0.8-1-1.2-1.4c-0.4-0.3-0.4-0.7,0-1.1c0.1-0.1,0.2-0.2,0.3-0.3c1.5-0.8,1.5-2.2,1.3-3.6c-0.1-1.2-0.4-2.3-0.4-3.5
			c0-2.1,1-4.2,2.9-5.3c0.2-0.2,0.5-0.3,0.7-0.5c0.1-0.1,0.3-0.2,0.4,0c0.1,0.1,0.1,0.3,0,0.4c-0.2,0.3-0.4,0.6-0.8,0.9
			c-0.4,0.3-0.7,0.8-0.8,1.4c-0.2,1.3-0.2,2.6,0.1,3.9c0.1,1,0.2,1.9,0.1,2.9c-0.1,1-0.6,1.9-1.4,2.6c-0.3,0.3-0.4,0.5-0.1,0.9
			c0.8,0.9,1.3,2,1.3,3.2c0.1,1.5-0.1,3-0.1,4.4c0.1,1,0.4,2,1,2.8c0.3,0.4,0.7,0.5,1.1,0.7c0.6,0.3,0.7,0.7,0.2,1.2
			C234.3,297.9,233.7,298.2,233,298.3z"/>
		<path d="M248.2,276.6c-0.1,1.4-0.4,2.8-0.4,4.3c0,1.4,0.3,2.6,1.8,3.2c0.4,0.2,0.5,0.5,0.1,0.8c-0.4,0.4-0.9,0.7-1.4,0.9
			c-0.6,0.3-1,0.9-1,1.6c0.1,1.6,0.3,3.2,0.6,4.8c0.1,0.7,0.2,1.4,0.2,2c0,0.8-0.3,1.5-0.9,2c-0.6,0.5-1.2,1.1-1.7,1.8
			c-0.2,0.3-0.4,0.5-0.7,0.6c-0.3,0.1-0.6,0-0.7-0.2c-0.2-0.2-0.1-0.6,0.1-0.8c0.3-0.3,0.7-0.7,1.1-0.9c0.3-0.2,0.4-0.5,0.4-0.9
			c0-1-0.1-2-0.3-3.1c-0.2-1.2-0.4-2.5-0.3-3.7c0.1-1.1,0.5-2.1,1.2-3c0.2-0.2,0.3-0.4,0.3-0.6c0-0.2-0.1-0.5-0.2-0.6
			c-0.7-0.9-1-2.1-0.7-3.2c0.2-1.3,0.2-2.6,0.3-3.8c0-0.9-0.2-1.7-0.5-2.5c-0.1-0.5-0.6-0.8-1-1.2c-0.5-0.6-0.5-0.9,0.1-1.4
			c1.2-1,1.3-1,2.4,0c0.7,0.8,1.1,1.8,1.1,2.8C248.2,275.8,248.2,276.2,248.2,276.6z"/>
	</g>
</g>
<g>
	<g>
		<path d="M20.4,108.9c-0.7,0-1.4,0-2.1,0c-0.7-0.1-0.9-0.5-0.6-1.2c0.2-0.4,0.5-0.8,0.9-1.2c0.2-0.2,0.3-0.5,0.2-0.7
			c-0.9-1.8-1.4-3.7-2.3-5.5c-0.1-0.2-0.4-1-0.6-0.8c-0.2,0.2-0.3,0.5-0.4,0.8c-0.3,0.6-0.9,1-1.6,0.9c-1.9,0-3.1-0.1-5-0.1
			C8.6,101,8.4,101,8,101c-1-0.1-1.9,0.5-2.2,1.4c-0.5,1.1-1.1,2.2-1.7,3.3c-0.2,0.4-0.1,0.7,0.4,0.7c0.5,0,0.9,0,1.4-0.1
			c0.4,0,0.7,0,1.1,0c0.7,0.1,0.8,0.5,0.4,1.1c-0.9,1.5-2.4,1.4-3.8,1.4c-0.8,0-1.6,0-2.4-0.1c-0.3,0-0.5,0-0.8-0.1
			c-0.2,0-0.4-0.2-0.5-0.4c-0.1-0.2-0.1-0.4,0-0.6c0.2-0.7,0.9-1.2,1.6-1.4c0.4,0,0.8-0.3,0.9-0.7c0.9-1.6,1.7-3.2,2.6-4.8
			c1-1.8,2-3.7,2.9-5.5c0.5-1,1-1.9,1.4-2.9c0.4-0.9,0.9-1.7,1.3-2.6c0.3-0.4,0.2-1,0-1.4c-0.1-0.1-0.1-0.2-0.2-0.3
			c-0.4-0.4-0.6-1-0.5-1.6c0-0.6,0.3-1.1,0.8-1.5c0.2-0.3,0.5-0.4,0.8-0.4c0.3,0,0.6,0.2,0.7,0.5c0.6,0.9,1.1,1.9,1.6,2.9
			c0.7,1.4,1.4,2.8,2,4.2c1.4,3.3,3.1,6.4,4.5,9.7c0.5,1.2,0.8,2.4,1.3,3.5c0.1,0.5,0.6,0.8,1,0.7c0.5,0,0.9,0,1.2,0.5
			c0.2,0.6-0.1,1-0.4,1.4c-0.4,0.6-1.1,0.9-1.9,0.8C21.2,108.8,20.8,108.8,20.4,108.9L20.4,108.9z M14.3,98.1c0.8,0,0.9-0.1,0.6-0.9
			c-0.3-0.7-0.7-1.3-0.9-2c-0.5-1.3-1.1-2.6-1.8-3.7c-0.1-0.2-0.2-0.4-0.4-0.4c-0.2,0-0.3,0.2-0.4,0.4c-0.5,0.9-0.9,1.8-1.2,2.7
			c-0.5,1-0.9,1.9-1.4,2.9c-0.3,0.5-0.2,0.7,0.3,0.7c1.6,0.2,3.1,0.3,4.8,0.3H14.3z"/>
	</g>
	<g>
		<path d="M66.8,109.1c-1.3,0-2.5-0.4-3.8-0.4c-1.6,0-3.3,0-4.9,0c-0.3,0-0.7,0-0.9-0.3c-0.1-0.4,0.2-0.6,0.4-0.8
			c0.5-0.5,1.2-1,1.9-1.2c0.3-0.1,0.5-0.3,0.5-0.6c0-1.9,0.8-3.8,0.7-5.7c0-0.7-0.2-1.4-0.2-2.1c-0.1-1.4,0.2-2.9,0.1-4.3
			c0-0.7-0.1-1.5-0.3-2.2c-0.1-0.9-0.1-1.9,0-2.8c0-1.1-0.1-1.2-1.2-1.1c-0.5,0-1.1,0.1-1.3-0.4c-0.3-0.5,0.3-0.9,0.6-1.2
			c0.4-0.5,1.1-0.7,1.7-0.6c1.5,0.1,2.9,0.1,4.4,0c2.4-0.2,4.9-0.3,7.2,0.6c1.6,0.5,2.7,2,2.7,3.7c0.1,1.5-0.3,2.9-1.3,4.1
			c-0.4,0.4-0.8,0.8-1.3,1.1c-0.4,0.3-0.4,0.5,0.1,0.8c0.5,0.3,1,0.6,1.5,0.9c0.7,0.5,1.3,1.1,1.6,1.9c0.1,0.3,0.2,0.5,0.3,0.7
			c0.7,1.3,0.7,2.9,0,4.3c-0.8,2.1-2.6,3-4.3,4.1c-1,0.7-2.1,1.2-3.3,1.4C67.4,109.1,67.1,109.1,66.8,109.1z M68.8,106.9
			c0.7-0.1,1.3-0.3,1.9-0.6c1.5-0.5,1.9-1.8,2.2-3.1c0.3-2.5-1.2-4.8-3.5-5.7c-1.8-0.6-3.6-0.9-5.5-0.9c-0.6,0-0.8,0.2-0.8,0.8
			c0.2,1.2,0.2,2.3-0.1,3.5c-0.1,0.3-0.2,0.6-0.2,0.9c-0.1,1.2-0.2,2.5-0.1,3.8c0,0.5,0.2,0.7,0.7,0.7c0.7,0,1.4,0,2.1,0.1
			C66.7,106.7,67.7,106.9,68.8,106.9z M66.5,94.6c0.8,0.1,1.6,0.1,2.3,0c2.2-0.3,2.4-0.7,2.7-2.7c0.4-1.4-0.2-2.8-1.4-3.6
			c-0.5-0.3-1-0.5-1.6-0.6c-1.4-0.3-2.8-0.4-4.2-0.3c-1.5,0.1-1.5,0.1-1.5,1.5c0,1.7,0.5,3.3,0.3,5.1c0,0.3,0.2,0.5,0.6,0.5
			c0.4,0,0.8,0,1.2,0C65.3,94.6,66.1,94.6,66.5,94.6z"/>
	</g>
	<g>
		<path d="M114.3,97.7c0.3-2.3,1.1-4.5,2.6-6.4c1.1-1.5,2.4-2.8,3.8-3.9c1.4-1.1,3.1-1.9,4.8-2.2c1.8-0.3,3.6-0.1,5.3,0.6
			c1.1,0.4,2,1.4,2.3,2.6c0.3,0.9-0.9,2.1-1.6,2.2c-0.4,0-0.7-0.2-0.8-0.6c-0.5-1.5-1.6-2.1-3.1-2.4c-1.7-0.3-3.4-0.2-5,0.4
			c-0.9,0.2-1.7,0.7-2.4,1.3c-1.1,1-1.9,2.2-2.5,3.5c-1,2.6-1.2,5.5-0.4,8.3c0.5,2.3,2.1,4.1,4.3,4.9c1.8,0.8,3.8,1,5.8,0.6
			c1.8-0.5,3.4-1.4,4.8-2.6c0.2-0.2,0.4-0.4,0.7-0.5c0.2-0.1,0.5-0.1,0.7,0.1c0.2,0.3,0.1,0.5-0.1,0.7c-0.6,0.5-1.2,1-1.8,1.5
			c-0.4,0.3-0.9,0.6-1.3,0.9c-0.5,0.5-1.1,0.9-1.8,1.1c-2.3,1.1-4.9,1.4-7.4,0.9c-1.8-0.4-3.4-1.3-4.7-2.5c-0.5-0.5-1-1.2-1.2-1.9
			C114.5,102.4,114.3,100.6,114.3,97.7z"/>
	</g>
	<g>
		<path d="M190.3,96.4c0.1,1.9-0.2,3.9-0.8,5.7c-0.8,2.3-2.5,4.1-4.7,5.2c-1.6,0.8-3.4,1.2-5.3,1.3c-1.6,0.1-3.2,0-4.8,0.1
			c-1,0.1-1.9,0.1-2.9,0.1c-0.3,0-0.7,0-0.8-0.4s0.2-0.6,0.5-0.8c0.4-0.3,0.8-0.5,1.2-0.7c0.3-0.1,0.5-0.4,0.5-0.8
			c0-1.5,0-3-0.2-4.5c0-0.4-0.1-0.7-0.1-1.1c-0.2-3.6,0.2-7.1,0.2-10.7c0-0.7,0-1.4,0-2.1c0-0.2-0.1-0.4-0.2-0.5
			c-0.2-0.1-0.4-0.2-0.5-0.1c-0.3,0-0.6,0.1-0.9,0.1c-0.2,0-0.4-0.1-0.5-0.3c-0.1-0.2,0-0.5,0.2-0.6c0.6-0.6,1.3-0.9,2.1-1
			c1.9-0.1,3.8-0.1,5.7-0.1c2.4-0.1,4.7,0.4,6.7,1.7c2.9,1.9,4.6,5,4.7,8.4C190.3,95.8,190.3,96.2,190.3,96.4z M180.8,107.1
			c0.4,0,0.7,0,1.1,0c1.3,0,2.5-0.5,3.3-1.4c1.5-1.8,2.4-4,2.4-6.3c0-0.4,0-0.8,0-1.1c0.2-1.5,0-3.1-0.4-4.5
			c-0.4-1.4-1.2-2.7-2.3-3.7c-0.4-0.4-0.9-0.8-1.3-1.2c-0.5-0.5-1.1-0.8-1.8-1c-1.6-0.4-3.2-0.6-4.9-0.6c-0.8,0-1,0.2-1,1
			c0,3-0.2,5.9-0.2,8.9c0,2.8,0.3,5.6,0.2,8.4c0,0.4,0,0.7-0.1,1.1c-0.2,0.5,0,0.5,0.4,0.6C177.7,107.2,179.2,107.2,180.8,107.1z"/>
	</g>
	<g>
		<path d="M240.9,106.4c1,0,2-0.1,3-0.3c0.4-0.1,0.7-0.3,1-0.6c0.2-0.2,0.5-0.4,0.8-0.1c0.3,0.2,0.1,0.5,0,0.8
			c-0.5,0.9-1.2,1.7-2.1,2.3c-0.2,0.1-0.5,0.2-0.7,0.2c-1.2,0-2.4,0.1-3.7,0.2c-1,0.1-2,0-3,0c-1.7,0-3.3,0-5,0c-1-0.1-2-0.1-3,0.1
			c-0.2,0.1-0.5,0-0.7-0.2c-0.1-0.2-0.1-0.5,0-0.8c0.4-0.8,1.1-1.3,1.9-1.5c0.4,0,0.8-0.4,0.7-0.9c0.1-1.1,0.1-2.3-0.1-3.4
			c-0.1-1.2-0.1-2.3,0.1-3.5c0.1-1.3,0-2.5,0.1-3.8c0-1.4-0.2-2.8,0-4.2c0.1-0.8,0-1.7,0.1-2.5c0-0.4-0.2-0.5-0.5-0.6
			c-0.5-0.1-1,0-1.5,0c-0.4,0-0.7,0-0.9-0.3c-0.2-0.4,0.1-0.6,0.3-0.9c1.1-1.2,2.6-1.1,4-1c0.4,0.1,0.7,0.1,1.1,0
			c1.4-0.2,2.9-0.3,4.3-0.3c2.1,0.2,4.2,0,6.2,0c0.5,0,0.9,0.1,1.3,0.2c0.2,0,0.4,0.2,0.5,0.4c0.1,0.2,0.1,0.4-0.1,0.6
			c-0.3,0.6-0.9,1.1-1.5,1.4c-0.2,0.1-0.5,0.1-0.7,0c-0.8-0.3-1.6-0.5-2.4-0.4c-1.7,0.1-3.5-0.1-5.2,0c-0.6,0-1.1,0.1-1.7,0.2
			c-0.3,0-0.6,0.3-0.6,0.6c-0.2,0.9-0.2,1.8-0.1,2.7c0.1,1-0.1,2,0,3c0.1,0.8,0.2,0.9,1,0.9c0.3,0,0.6,0,0.9-0.1
			c0.8-0.2,1.5-0.2,2.3,0c0.4,0.1,0.7,0.1,1.1,0c0.8,0,1.7,0,2.5,0.1c0.4,0,0.6,0.3,0.4,0.7c-0.3,0.7-0.8,1.2-1.4,1.7
			c-0.3,0.2-0.6,0.2-0.9,0.1c-0.4-0.1-0.9-0.2-1.4-0.2c-1.2,0.1-2.3-0.1-3.4-0.1c-0.9,0-1.2,0.3-1.2,1.2c0,1.8,0.1,3.6,0.1,5.3
			c0.1,0.7-0.1,1.4-0.3,2.1c-0.2,0.4,0,0.6,0.5,0.7c0.8,0,1.5,0.1,2.3,0.1C236.7,106.4,239.5,106.4,240.9,106.4z"/>
	</g>
	<g>
		<path d="M10,128.8c1.3,0.1,2.6,0,3.8-0.2c0.2-0.1,0.4,0,0.5,0.2c0.1,0.2,0,0.4-0.1,0.6c-0.5,0.5-1,1-1.6,1.4
			c-0.2,0.2-0.5,0.3-0.8,0.2c-1.6,0-3.1,0.2-4.7,0c-0.9-0.1-1,0-1,0.9c0,0.9,0.1,1.8,0.1,2.7c0.1,1.4,0.1,2.8,0.1,4.3
			c-0.1,0.3-0.2,0.6-0.3,0.8c-0.2,0.6,0,0.6,0.7,0.6c0.5,0,1,0,1.4,0.1c0.8,0.2,1,0.8,0.4,1.4c-0.6,0.7-1.6,1.1-2.5,0.9
			c-1.2-0.2-2.4-0.2-3.6-0.1c-0.5,0-0.9,0-1.4-0.1c-0.2,0-0.4-0.1-0.5-0.3c-0.1-0.2,0-0.4,0.1-0.6c0.5-0.7,1.3-1.2,2.1-1.4
			c0.6-0.1,0.7-0.2,0.6-0.9c-0.2-1.4,0-2.9-0.2-4.3c-0.1-0.7,0-1.3,0-2c0.1-1.1-0.1-2,0-3.1c0.1-2.3,0.1-4.7,0.3-7
			c0-0.3,0.1-0.6,0.2-0.9c0.1-0.4,0-0.6-0.5-0.7c-0.5-0.1-1-0.1-1.5,0c-0.5,0-1,0.1-1.2-0.4c-0.2-0.5,0.3-0.8,0.6-1.1
			c0.5-0.4,1.2-0.7,1.8-0.6c2.1-0.1,4.1,0.2,6.2,0.2c2.7,0,5.5,0.3,8.2-0.2c0.3-0.1,0.5-0.1,0.8,0c0.9,0.2,1.2,0.8,0.6,1.6
			c-0.3,0.4-0.6,0.7-1.1,0.9c-0.3,0.2-0.6,0.2-0.9,0.1c-0.3-0.1-0.7-0.2-1.1-0.1c-1.5,0.1-3,0.1-4.5,0c-1.4,0-2.9,0-4.3,0
			c-0.4,0-0.6,0.3-0.6,0.6c-0.1,0.7-0.1,1.5-0.1,2.3c-0.1,1.1-0.1,2.3-0.1,3.4c0,0.7,0.1,0.8,0.8,0.8C7.8,128.8,8.9,128.8,10,128.8z
			"/>
	</g>
	<g>
		<path d="M77.5,137.6c0,1.3,0.1,1.1,0.1,2.5c0,0.7,0.2,1-0.3,1.4c-1.5,0.9-3.1,1.6-4.8,1.9c-1.7,0.2-3.4,0.2-5.1-0.1
			c-1.3-0.1-2.5-0.4-3.7-0.8c-1.4-0.4-2.7-1.2-3.6-2.3c-0.1-0.1-0.1-0.1-0.2-0.2c-1.4-1.4-2.1-3.3-2.2-5.3c-0.2-1.9,0.1-3.9,0.7-5.8
			c0.5-1.2,1.1-2.3,1.8-3.4c0.7-1.2,1.7-2.3,2.8-3.3c1.4-1.2,3-2,4.8-2.5c0.9-0.3,1.8-0.6,2.7-0.7c1,0,2,0,2.9,0.2
			c1.7,0.5,2.9,2,3.2,3.7c0,0.8-0.6,1.6-1.4,1.8c-0.4,0-0.5-0.2-0.6-0.5c-0.2-0.6-0.5-1.2-0.9-1.8c-1-1.2-2.2-1.2-3.7-1.1
			c-1.9-0.1-3.8,0.5-5.3,1.5c-1.9,1.3-3.3,3.3-3.9,5.5c-0.7,2.2-0.8,4.5-0.5,6.8c0.1,0.3,0.2,0.6,0.3,0.8c0.8,1.4,2,2.6,3.3,3.5
			c1.1,0.6,2.3,1,3.6,1.2c2.3,0.4,4.7,0.4,7.1,0.1c0.9-0.1,0.8-0.3,0.9-1.2c0.1-1.5,0-2.9,0-4.4c0-0.8,0.1-1-0.7-1.1
			c-1.7-0.1-4,0.2-5.7,0.2c-0.4,0-0.7,0-1.1-0.1c-0.5-0.1-0.6-0.4-0.4-0.9c0.2-0.3,0.8-0.6,1.1-0.9c0.4-0.4,0.9-0.6,1.4-0.7
			c1.3,0,2.5,0,3.8,0c1-0.1,2-0.1,2.9,0c0.8,0.1,1.1,0.2,1.1,1.1C77.8,133.7,77.5,136.8,77.5,137.6z"/>
	</g>
	<g>
		<path d="M117.8,142.7c-0.9,0-1.8,0-2.7,0.1c-0.2,0-0.3,0-0.5,0c-0.6-0.1-0.8-0.5-0.5-1c0.4-0.8,1.2-1.4,2.2-1.5
			c0.8-0.1,0.8-0.2,0.8-1c0-2.8,0-5.6-0.2-8.4c-0.1-1.4-0.1-2.9,0-4.3c0-0.9-0.1-1.8-0.2-2.7c-0.1-0.5,0-1.1,0.3-1.5
			c0.2-0.5,0.1-0.6-0.4-0.7c-0.4,0-0.8,0-1.3,0c-0.3,0-0.6,0-0.7-0.4c-0.1-0.3,0-0.5,0.2-0.7c0.6-0.9,1.7-1.4,2.8-1.3
			c0.8,0,1.6,0.1,2.3,0.3c0.6,0.1,1.1,0,1.7-0.1c0.4,0,0.8,0,1,0.3c0.3,0.4,0,0.7-0.2,1c-0.5,0.8-1.4,1.2-2.3,1.1
			c-0.7-0.1-0.9,0.1-0.8,0.9c0.1,1.1,0.2,2.3,0.1,3.4c0,0.6,0,1.1,0,1.7c0,1.3,0.1,1.3,1.4,1.3c1.4-0.1,2.7-0.1,4.1,0.1
			c0.4,0.1,0.8,0.1,1.1,0c1.7-0.1,3.4,0,5.1-0.2c0.7-0.1,0.9-0.2,0.8-1c-0.1-1.3,0-2.7-0.2-3.9c-0.1-0.5,0-1,0.1-1.5
			c0.1-0.5-0.1-0.7-0.6-0.7c-0.3,0-0.6,0-0.9,0c-0.2,0-0.5-0.1-0.6-0.3c-0.1-0.2-0.1-0.5,0.1-0.7c0.3-0.5,0.7-0.8,1.2-1
			c0.7-0.2,1.5-0.4,2.2-0.4c0.8,0,1.6-0.1,2.4-0.1c0.4,0,0.8,0,1.1,0.4c0.2,0.5-0.2,0.7-0.4,1c-0.3,0.4-0.8,0.7-1.3,0.8
			c-0.2,0-0.4,0.1-0.5,0.3c-0.1,0.2-0.2,0.4-0.1,0.6c0.3,2.3,0.1,4.7,0.3,7c0.1,1.3,0,2.7-0.1,4c-0.1,1.2-0.1,2.4,0,3.7
			c0.1,0.9,0.1,1.8-0.1,2.6c-0.1,0.5,0,0.7,0.5,0.7c0.6-0.1,1.2,0,1.8,0.1c0.7,0.2,0.8,0.5,0.3,1.1c-0.6,0.8-1.5,1.2-2.5,1.3
			c-1.4,0.1-2.9,0.2-4.3,0.3c-0.3,0-0.7,0-0.8-0.3c-0.1-0.3,0.1-0.6,0.3-0.8c0.4-0.5,1-0.9,1.7-1.1c0.3-0.1,0.5-0.3,0.5-0.6
			c0-0.3,0-0.6,0-0.9c-0.2-2.1-0.1-4.2,0.1-6.3c0-0.7,0-1.3,0-2c0-0.2-0.1-0.4-0.2-0.5c-0.2-0.1-0.4,0.1-0.5,0.2
			c-0.8,0.6-1.7,0.9-2.7,0.8c-2.1,0.2-4.2,0.2-6.3,0.1c-0.6,0-1.3-0.1-1.9,0c-0.7,0-0.9,0.2-0.9,0.9c-0.1,2.1,0.1,4.2,0,6.2
			c0,0.3,0,0.7-0.1,1c-0.2,0.4,0.1,0.6,0.5,0.5c0.5,0,1,0,1.5,0c0.3,0,0.7,0,0.8,0.4c0.1,0.4-0.1,0.6-0.4,0.8
			c-0.4,0.3-0.8,0.7-1.2,1c-0.3,0.2-0.6,0.3-0.9,0.3C119.1,142.7,118.4,142.7,117.8,142.7z"/>
	</g>
	<g>
		<path d="M176.1,142.8c-1.4,0.1-2.7,0.1-4.1,0.1c-0.2,0-0.4,0-0.7,0c-0.5-0.1-0.7-0.6-0.3-1c0.6-0.6,1-1.3,1.9-1.4
			c0.4,0,0.5-0.4,0.5-0.7c0-2,0.3-3.9,0.2-5.9c-0.2-2-0.2-4,0-5.9c0.1-1-0.2-2.1-0.1-3.1c0.1-0.8,0.1-1.5,0-2.3
			c-0.1-1-0.3-1.2-1.3-1.2c-0.3,0-0.5,0-0.8,0c-0.7-0.1-0.9-0.6-0.5-1.1c0.5-0.8,1.3-1.2,2.3-1.1c1.4,0.1,2.8,0.1,4.2,0.1
			c0.3,0,0.5,0,0.8,0c0.8,0.1,1,0.5,0.6,1.2c-0.3,0.8-1.1,1.3-1.9,1.4c-0.6,0.1-0.7,0.3-0.8,0.8c-0.1,0.8-0.1,1.6,0,2.3
			c0.1,1.2,0.1,2.3,0,3.5c0,1.5,0.1,3,0.1,4.4c0,2.2-0.3,4.4-0.2,6.5c0,0.9,0.1,1,1,1c0.4,0,0.8,0,1.1,0.1c0.2,0,0.4,0.2,0.5,0.4
			s0.1,0.5-0.1,0.6c-0.3,0.7-1,1.2-1.7,1.1C176.6,142.8,176.3,142.8,176.1,142.8z"/>
		<path d="M186.1,137.7c-0.1-1.7-0.2-3.9-0.2-6.2c0-1.3,0.1-2.7,0.2-4c0.2-1.7,0.2-3.3,0.2-5c0-0.5-0.3-0.7-0.7-0.7
			c-0.6,0.1-1.1,0.1-1.7,0c-0.7-0.2-0.9-0.5-0.5-1.1c0.2-0.3,0.4-0.5,0.5-0.8c0.3-0.4,0.7-0.6,1.2-0.6c1.5,0.1,3,0,4.5-0.1
			c0.3,0,0.6-0.1,0.7,0.3c0.1,0.3,0,0.6-0.2,0.8c-0.3,0.3-0.6,0.6-1,0.9c-0.3,0.3-0.5,0.7-0.5,1.1c0,1.7-0.2,3.4-0.3,5
			c-0.1,2.3,0,4.6,0.1,6.9c0.1,2.1,0.1,4.1-0.1,6.2c-0.1,0.9-0.2,1.7-0.3,2.6c-0.5,1.7-1.4,3.3-2.7,4.5c-0.8,0.9-1.7,1.5-2.8,1.9
			c-1.4,0.5-2.9,0.4-4.2-0.2c-0.3-0.1-0.4-0.3-0.5-0.5c-0.1-0.3,0-0.5,0.2-0.7c0.2-0.3,0.5-0.6,0.7-0.9c0.4-0.4,1-0.6,1.5-0.3
			c1.3,0.5,2.7,0.5,4,0c0.7-0.3,1.2-0.9,1.2-1.6C186,142.7,186.1,140.2,186.1,137.7z"/>
	</g>
	<g>
		<path d="M230.7,119.4c1.6,0.1,3.2,0.1,4.9,0.1c0.3,0,0.6,0.1,0.7,0.4c0.1,0.3-0.1,0.5-0.3,0.7c-0.5,0.7-1.4,1.1-2.3,1
			c-0.5-0.1-0.8,0.2-0.7,0.7c0.2,2.4,0.2,4.8,0.2,7.2c0,0.2-0.1,0.5,0.2,0.6c0.3,0.2,0.4-0.1,0.6-0.2c1.4-0.9,2.7-2.1,3.8-3.4
			c1-1.1,2.1-2.2,3.3-3.1c0.4-0.3,0.7-0.6,1.1-0.9c0.4-0.3,0.7-0.9,0.7-1.4c0-0.7,1-1.6,1.9-1.6c0.7,0,1.4,0,2.1,0
			c0.2,0,0.5,0.1,0.6,0.3c0.1,0.2,0,0.5-0.2,0.6c-0.6,0.6-1.2,1.3-2.2,1.1c-0.3,0-0.6,0.1-0.8,0.3c-0.5,0.5-1,1-1.6,1.4
			c-1.7,1.5-3.4,3.1-4.9,4.8c-0.4,0.5-1,1-1.5,1.4c-0.5,0.5-0.5,0.8,0,1.3c1.6,1.4,3.2,2.9,4.7,4.5c1.1,1.1,2.2,2.1,3.3,3
			c0.7,0.6,1.4,1.3,2.1,1.9c0.5,0.4,1,0.6,1.7,0.6c0.2,0,0.4,0,0.5,0.1c0.3,0,0.6,0.3,0.7,0.6c0.1,0.3-0.2,0.5-0.4,0.7
			c-0.8,0.7-1.8,1.1-2.8,1c-0.3,0-0.5-0.1-0.7-0.2c-2.3-1.9-4.5-3.9-6.7-5.9c-0.7-0.6-1.2-1.4-1.9-2.1c-0.9-0.9-2-1.5-2.9-2.5
			c-0.1-0.2-0.3-0.3-0.5-0.2c-0.2,0.1-0.2,0.3-0.2,0.4c0.1,2-0.2,3.9-0.1,5.9c0,0.5,0.1,1,0.1,1.5c0,0.5,0.3,0.7,0.8,0.7
			c0.5,0,1,0,1.5,0c0.3,0,0.6,0.1,0.8,0.4c0.1,0.3-0.1,0.6-0.2,0.8c-0.5,0.7-1.3,1-2.1,0.9c-1.2-0.1-2.3,0.2-3.5,0
			c-0.8-0.2-1.6-0.2-2.4-0.2c-0.2,0-0.5-0.1-0.6-0.4c-0.1-0.3,0-0.5,0.2-0.7c0.5-0.5,1.2-0.8,1.9-1c0.2,0,0.4-0.1,0.5-0.2
			s0.2-0.3,0.1-0.5c-0.1-1.8,0.2-3.7,0.2-5.5c0-1.8,0-3.7-0.1-5.5c0-0.9,0.1-1.7,0.1-2.6c0.1-1.3-0.4-2.6-0.2-4
			c0-0.3-0.2-0.4-0.5-0.5c-0.5-0.1-1.1-0.2-1.6-0.2c-0.3,0.1-0.6-0.1-0.7-0.3c-0.1-0.3,0-0.6,0.2-0.8c0.5-0.6,1.2-0.9,2-0.9
			C229.9,119.4,230.3,119.4,230.7,119.4z"/>
	</g>
	<g>
		<path d="M11.9,174.9c1.1,0,2.3,0,3.5,0.1c0.8,0.1,1.6-0.2,2.2-0.7c0.1-0.1,0.2-0.1,0.3-0.2c0.3-0.2,0.7-0.4,1-0.1
			c0.3,0.3,0.3,0.7,0.1,1.1c-0.2,0.4-0.5,0.8-0.9,1c-1,0.4-2,0.6-3.1,0.6c-2.2,0.1-4.5,0.1-6.7,0.2c-0.7,0-1.4-0.1-2.1-0.2
			c-1.1-0.1-2.1-0.1-3.2,0c-0.4,0.1-0.9,0.1-1.3,0c-0.5-0.1-0.6-0.4-0.3-0.7c1.3-0.9,1.3-2.3,1.5-3.7c0.1-1.2,0.1-2.4,0-3.6
			c0-1.7,0.1-3.3,0.1-5c0.1-1.8,0.1-3.6,0-5.5c0-0.7,0-1.3,0.2-2c0.1-0.7,0-0.8-0.7-0.8c-0.4,0-0.8-0.1-1.1-0.1
			c-0.3,0-0.5-0.1-0.6-0.3c-0.1-0.2,0-0.5,0.2-0.7c0.7-0.9,1.8-1.3,2.9-1c0.8,0.1,1.6,0.1,2.5-0.1c0.2,0,0.4-0.1,0.6,0
			c0.5,0.1,0.6,0.5,0.3,0.8c-0.1,0.1-0.1,0.1-0.2,0.2c-0.8,0.5-1.3,1.4-1.1,2.3c0.1,1.2,0,2.4,0.1,3.7c0,1.4,0,2.7-0.1,4.1
			c-0.1,1.8,0,3.6,0,5.5c0.1,1.2-0.1,2.4-0.6,3.6c0,0.1,0,0.1-0.1,0.2c-0.3,1-0.3,1,0.8,1.1c0.9,0,1.7,0.1,2.6,0.2
			C9.7,174.9,10.8,175,11.9,174.9z"/>
	</g>
	<g>
		<path d="M62.6,165.6c0,0.7,0,1.3-0.1,2c-0.2,1.3-0.1,2.7-0.3,4c-0.1,0.6-0.1,1.2-0.1,1.9c0,0.8,0.2,1.1,1,1.1
			c0.4,0,0.8,0.1,1.2,0.1c0.5,0.1,0.7,0.5,0.4,0.9c-0.6,0.9-1.7,1.4-2.8,1.3c-1.1-0.2-2.2-0.2-3.3-0.1c-0.4,0-0.8,0-1.1-0.1
			c-0.5-0.1-0.6-0.4-0.3-0.8c0.5-0.6,1.1-1.2,1.8-1.5c0.3-0.1,0.6-0.4,0.6-0.8c0.2-1.3,0.3-2.5,0.3-3.8c0-1.6,0.2-3.1,0.4-4.7
			c0.3-2.2,0.4-4.5,0.4-6.8c0-0.2,0-0.5,0-0.7c0.2-0.7,0.1-1.5-0.5-2.1c-0.1-0.1-0.2-0.3-0.2-0.5c0-0.2,0.1-0.4,0.3-0.5
			c0.3-0.3,0.6-0.7,1-0.9c0.2-0.2,0.4-0.3,0.7-0.3c0.3,0,0.5,0.1,0.7,0.3c0.8,0.7,1.4,1.4,1.9,2.3c1.2,2,2.3,4.1,3.4,6.1
			c0.8,1.5,1.4,3.1,2.3,4.5c0.8,1.2,1.3,2.6,2.2,3.8c0.1,0.2,0.2,0.5,0.5,0.5c0.3,0,0.3-0.3,0.4-0.6c0.4-0.7,0.7-1.4,1.1-2
			c1-1.9,1.8-3.8,2.5-5.8c0.8-2,1.3-4.1,2.1-6.2c0.1-0.4,0.2-0.8,0.2-1.2c0-0.6,0.3-1.1,0.7-1.4c0.3-0.2,0.6-0.4,1-0.6
			c0.8-0.4,1.4-0.1,1.4,0.8c0,1.3,0.1,2.5,0.3,3.8c0.3,2.2,0.7,4.4,0.9,6.7c0.1,0.7,0.1,1.3,0.2,2c0.1,1.8,0.2,3.7,0.5,5.5
			c0.1,0.7,0.1,1.4,0.1,2.1c0,0.6,0.2,0.8,0.8,0.8c0.3,0,0.7,0,1,0c0.2,0,0.5,0.2,0.5,0.4c0.1,0.2-0.1,0.5-0.3,0.6
			c-1,0.8-2.3,1.2-3.6,1.1c-1.2-0.2-2.5-0.2-3.7,0c-0.3,0.1-0.7,0-0.8-0.3c-0.2-0.4,0.1-0.6,0.3-0.8c0.4-0.4,1-0.7,1.5-0.8
			c1-0.2,1.3-0.8,1.1-1.8c-0.5-3-0.6-6-1-9c-0.1-1.4-0.4-2.7-0.7-4c0-0.2,0-0.4-0.2-0.4c-0.2,0-0.3,0.2-0.3,0.4
			c-0.6,1.8-1.5,3.5-2.2,5.2c-0.7,1.6-1.4,3.2-2.3,4.8c-0.2,0.3-0.3,0.6-0.4,0.8c-0.6,0.8-0.7,2,0,2.8c0.1,0.2,0.2,0.4,0.2,0.7
			c0,0.2-0.2,0.4-0.4,0.5c-0.3,0.2-0.5,0.4-0.8,0.6c-0.6,0.4-0.9,0.3-1.3-0.3c-1.1-1.7-1.8-3.6-3-5.3c-1.9-2.8-3.3-5.9-4.9-8.9
			c-0.1-0.2-0.2-0.6-0.6-0.6c-0.3,0.1-0.2,0.5-0.3,0.7C62.9,162.7,62.8,164.2,62.6,165.6z"/>
	</g>
	<g>
		<path d="M118.8,163.1c0.1,2.1-0.3,4.2-0.2,6.3c0.1,1.5,0.1,2.9,0.1,4.4c0,0.5,0.2,0.7,0.7,0.7c0.4,0,0.8,0,1.1-0.1
			c0.4,0,0.7-0.1,0.9,0.3c0.2,0.4-0.1,0.6-0.4,0.8c-0.9,0.9-2,1.4-3.3,1.4c-1,0.1-2.1,0-3.1-0.1c-0.8,0-1-0.5-0.5-1.2
			c0.3-0.5,0.8-0.9,1.4-1.1c0.4-0.1,0.5-0.4,0.5-0.8c0-1.1,0-2.1,0-3.2c-0.1-1.9,0.3-3.8,0.2-5.7c-0.1-1.9,0.1-3.9-0.1-5.8
			c-0.1-0.4,0-0.8,0.3-1.2c0.3-0.3,0.3-0.8,0-1.1c0,0,0,0,0,0c-1.1-1.9-0.7-2.2,0.9-3.6c0.2-0.2,0.4-0.2,0.6-0.2
			c0.2,0,0.4,0.2,0.5,0.4c0.7,1.1,1.4,2.1,2.2,3.2c1.5,1.9,2.7,4.1,4.2,6c1.6,2,3.1,4.2,4.7,6.3c0.5,0.6,0.9,1.3,1.4,1.9
			c0.2,0.2,0.3,0.4,0.6,0.3c0.3-0.1,0.2-0.4,0.2-0.6c-0.1-1.1-0.1-2.2,0-3.3c0.1-2.7-0.2-5.4,0-8.1c0.1-0.9-0.2-2-0.2-2.9
			c0-0.4-0.2-0.5-0.6-0.5c-0.3,0-0.6,0-0.9-0.1c-0.5-0.2-0.6-0.4-0.3-0.8c0.3-0.4,0.6-0.8,1-1.2c0.2-0.2,0.5-0.3,0.8-0.3
			c1.3,0.2,2.6-0.2,3.9,0c0.4,0.1,1,0,1.2,0.4c0.2,0.5-0.3,0.6-0.6,0.9c-0.4,0.4-0.9,0.6-1.4,0.7c-0.2,0-0.4,0.1-0.5,0.3
			s-0.2,0.4-0.2,0.6c0.1,2.9-0.1,6,0.1,8.9c0.1,2.1-0.1,4.1,0,6.2c0,0.5-0.1,1-0.2,1.5c-0.2,0.7,0.1,1.5,0.6,1.9
			c0.6,0.5,0.6,0.8,0,1.4c-0.3,0.3-0.7,0.6-1.1,0.8c-0.5,0.3-1.1,0.2-1.5-0.1c-0.5-0.3-0.9-0.8-1.3-1.2c-1.4-1.7-2.4-3.7-3.7-5.4
			c-0.8-1-1.4-2.2-2.2-3.2c-1.7-2.1-3.4-4.2-4.9-6.5c-0.1-0.2-0.9-0.7-1-0.5c-0.1,0.2,0,0.8,0,1
			C118.8,161.8,118.8,162.4,118.8,163.1z"/>
	</g>
	<g>
		<path d="M192.1,165.1c0,1-0.1,2.1-0.2,3.1c-0.3,1.1-0.7,2.1-1.4,2.9c-1.5,1.9-3.4,3.6-5.5,4.8c-1.3,0.9-3,1.2-4.6,0.9
			c-0.3-0.1-0.6-0.1-0.8,0c-1.5,0.1-2.9-0.3-4.1-1.2c-0.8-0.3-1.5-0.8-2.1-1.4c-1.1-1.2-1.7-2.7-1.9-4.3c-0.1-1.9-0.5-3.8-0.3-5.7
			c0.3-2.8,1.7-5.4,3.9-7.2c1.2-1.1,2.4-2.1,3.8-2.9c1.4-0.8,3.1-1.1,4.7-0.9c0.9,0.1,1.8,0.3,2.8,0.4c1,0.2,1.8,0.7,2.5,1.4
			c1.9,2.4,3.1,5.3,3.2,8.4C192.1,164,192.1,164.6,192.1,165.1z M183.2,174.7c1,0.1,2-0.1,2.9-0.7c1.1-0.7,2.1-1.7,2.8-2.9
			c0.7-1.1,1-2.3,0.9-3.6c0-1-0.1-2-0.2-2.9c-0.3-1.6-0.3-3.3-1.1-4.9c-0.5-0.9-1.1-1.8-1.7-2.6c-0.8-1-2-1.6-3.3-1.6
			c-0.3,0-1,0-1.3-0.1c-0.8-0.1-1.7-0.1-2.5,0.1c-3.2,0.7-4.8,2.9-5.7,5.5c-0.3,1.2-0.4,2.5-0.2,3.7c0.1,0.9,0.1,1.7,0.1,2.6
			c0,0.8,0.1,1.7,0.5,2.4c0.2,0.4,0.4,0.8,0.5,1.2c0.9,2,2.7,3,4.8,3.6C180.8,174.6,182,174.7,183.2,174.7z"/>
	</g>
	<g>
		<path d="M230.2,176.9c-0.8,0-1.5,0-2.3,0c-0.3,0-0.5,0-0.7-0.3c-0.1-0.2,0-0.5,0.2-0.7c0.5-0.7,1.2-1.1,1.9-1.3
			c0.9-0.1,0.9-0.2,0.9-1.1c0.1-2.6,0.1-5.3,0.1-7.9c0-2.7,0.1-5.5,0-8.2c0-0.4,0.1-0.7,0.1-1.1c0-0.5-0.2-0.8-0.7-0.7
			c-0.3,0-0.6,0-0.8-0.1c-0.5-0.1-0.6-0.5-0.3-0.9c0.5-0.7,1.4-1.2,2.3-1.2c1.2,0,2.4-0.1,3.5-0.2c2.5-0.3,5,0.3,7.1,1.7
			c0.9,0.7,1.6,1.6,1.9,2.8c0.2,0.6,0.3,1.2,0.4,1.8c0.2,1.1-0.2,2.1-0.9,2.9c-0.6,0.7-1.3,1.3-2,1.9c-1,0.7-2.2,1.1-3.5,1.1
			c-1.1,0.1-2.2,0.3-3.4,0.3c-0.9,0-1,0.2-1,1.1c0,2.2-0.1,4.5-0.1,6.7c0,0.9,0,1,0.9,1.1c0.1,0,0.3,0,0.4,0.1
			c0.3,0.1,0.5,0.2,0.6,0.5c0.1,0.3-0.1,0.5-0.4,0.7c-0.8,0.8-1.8,1.2-2.9,1C231,176.9,230.6,176.9,230.2,176.9L230.2,176.9z
			 M232.8,161.8c0,0.7,0,1.4,0,2.1s0.3,0.6,0.7,0.3c0.5-0.4,1.2-0.7,1.8-0.6c0.9,0,1.8,0,2.8-0.1c0.7-0.1,1.5-0.2,2.2-0.4
			c0.6-0.1,1.1-0.7,1-1.3c0-0.5,0-0.9,0-1.4c-0.1-1.5-0.9-2.9-2.2-3.7c-1.6-1-3.5-1.4-5.3-1.2c-0.7,0-0.9,0.1-0.9,0.9
			C232.9,158.1,232.9,159.9,232.8,161.8z"/>
	</g>
	<g>
		<path d="M13.3,187.2c2.9-0.1,5.7,1.6,7,4.2c1,1.9,1.5,4.1,1.6,6.2c0,1.4-0.2,2.7-0.5,4.1c-0.3,1.8-1,3.5-2.1,4.9
			c-0.3,0.4-0.8,0.5,0.3,0.7c0.3,0,0.5,0.1,0.8,0.1c1.2,0,2.3,0.5,3.2,1.4c0.1,0.1,0.2,0.3,0.3,0.4c0,0.2,0,0.3-0.1,0.5
			c-0.4,0.4-0.5,1.2-1,1.5c-0.5,0.4-0.7,0.7-1.4,0c-2.9-3.2-4.2-2-6.5-1.3c-1.1,0.5-2.2,0.8-3.4,0.9c-0.4,0-0.7,0-1,0
			c-3.6-0.2-6.8-2.3-8.5-5.5c-0.3-0.6-0.5-1.2-0.6-1.8c-0.1-0.9,0-1.6-0.2-2.5c-0.2-1.3-0.1-2.6,0.3-3.8c0.2-1.7,0.8-3.3,1.8-4.6
			c0.9-1.1,1.9-2,3.1-2.9c0.6-0.4,1.2-0.8,1.8-1.3c0.8-0.6,1.9-1,2.9-1.1C11.7,187.3,12.5,187.2,13.3,187.2z M11.4,189.3
			c-1-0.1-2,0-2.9,0.4c-1.9,0.7-3.4,2.2-4.1,4.1c-0.7,2.3-0.9,4.7-0.5,7c0,0.3,0.1,0.5,0.1,0.8c0.3,2.6,2,4.4,4.2,5.9
			c1.1,0.6,2.3,1,3.6,1.2c0.8,0.2,1.6,0.1,2.3-0.2c0.5-0.3,1-0.5,1.6-0.6c0.7-0.1,1.4-0.5,1.8-1.2c0.8-1.1,1.3-2.3,1.4-3.6
			c0-1.5,0.7-2.9,0.5-4.5c-0.1-2.2-0.8-4.3-1.9-6.1c-0.5-1-1.3-1.7-2.3-2.3C14,189.6,12.7,189.3,11.4,189.3L11.4,189.3z"/>
	</g>
	<g>
		<path d="M61.7,187.3c1.7-0.1,3.5,0,5.2,0c2.2,0,4.2,1.1,5.4,2.9c0.6,1,0.9,2.2,0.9,3.4c-0.1,1.9-1.9,3.4-3.7,4.1
			c-0.1,0-0.2,0.1-0.3,0.1c-0.1,0.1-0.5,0.2-0.5,0.4c0,0.2,0.4,0.2,0.6,0.3c1,0.3,1.9,0.9,2.6,1.7c0.6,0.7,1.2,1.4,1.6,2.2
			c1,1.9,2,3.8,3.1,5.6c0.3,0.6,0.8,1,1.5,1.3c0.3,0.1,0.5,0.3,0.6,0.7c0,0.4-0.3,0.5-0.6,0.6c-0.4,0.2-0.8,0.3-1.3,0.3
			c-0.8,0.1-1.7-0.2-2.1-0.9c-0.5-0.8-1-1.6-1.5-2.3c-0.5-0.7-1-1.5-1.4-2.3c-0.6-0.9-0.9-1.8-1.6-2.6c-1.4-2-3.6-3.2-6.1-3.1
			c-0.1,0-0.2,0-0.3,0c-0.7,0-0.9,0.2-0.9,0.9c-0.2,1.5-0.2,2.9-0.2,4.4c0.1,1.1,0,2.1-0.1,3.2c-0.1,0.7,0.1,0.8,0.7,0.8
			c0.3,0,0.7,0.1,1,0.2c0.4,0.2,0.4,0.7,0,0.9c-0.7,0.5-1.6,0.7-2.5,0.7c-0.8-0.1-1.7-0.2-2.6-0.2c-0.4,0-0.8,0-1.1-0.2
			c-0.2-0.1-0.4-0.2-0.4-0.5c0-0.2,0.1-0.5,0.3-0.6c0.4-0.3,0.8-0.5,1.2-0.7c0.3-0.1,0.5-0.4,0.5-0.7c0.1-0.5,0.1-1,0-1.5
			c-0.1-0.9,0-1.9,0.1-2.8c0.2-2.3,0.2-4.6,0-6.9c-0.3-2.1-0.3-4.1,0-6.2c0,0,0-0.1,0-0.1c0.2-1.2,0.2-1.2-1.1-1.3
			c-0.3,0-0.5,0-0.8,0c-0.5-0.1-0.7-0.5-0.4-0.9c0.5-0.6,1.3-1,2.1-1C60.4,187.3,61,187.3,61.7,187.3z M66.2,197.9
			c0.5,0,1,0,1.5-0.2c1.7-0.9,2.8-0.7,2.7-3.3c0,0,0,0,0-0.1c0.1-2.5-2.5-4.8-4.9-5.1c-0.7-0.1-1.4-0.1-2.1-0.1
			c-0.6,0-0.8,0.2-0.9,0.8c-0.1,0.6-0.1,1.2-0.1,1.8c-0.2,1.8,0.4,3.5,0.3,5.3c0,0.3,0.2,0.5,0.5,0.5
			C64.1,197.5,65.1,197.9,66.2,197.9L66.2,197.9z"/>
	</g>
	<g>
		<path d="M121.3,211.2c-2.2,0-4.3-0.6-6.1-1.8c-0.1-0.1-0.3-0.2-0.4-0.3c-1.1-1-1.1-1.9,0.1-2.8c0.3-0.3,0.8-0.3,1.2,0
			c0.1,0.1,0.2,0.1,0.3,0.2c0.9,0.9,2.1,1.5,3.3,1.7c1,0.3,2,0.5,3,0.5c1.4,0.1,2.7-0.3,3.8-1.1c0.8-0.7,1.1-1.8,0.8-2.9
			c-0.2-1.4-1.1-2.6-2.3-3.3c-1.4-0.9-2.9-1.6-4.4-2.3c-1.2-0.4-2.3-1-3.3-1.8c-1.1-0.8-1.9-2-2.2-3.4c-0.1-0.4-0.1-0.8,0-1.1
			c0.4-1.5,1.2-2.8,2.4-3.7c1-0.9,2.2-1.5,3.4-1.9c1.9-0.4,3.9,0.2,5.2,1.7c0.4,0.6,0.1,1-0.2,1.5c-0.3,0.5-0.5,1.3-1,1.2
			c-0.4-0.2-0.7-0.4-1-0.7c-1.8-1.6-4.4-1.7-6.3-0.2c-0.9,0.7-1.1,2-0.5,2.9c0.6,1,1.5,1.7,2.6,2.2c2.2,1.1,4.5,2.1,6.6,3.3
			c1.3,0.7,2.3,1.9,2.7,3.4s0.2,3-0.6,4.3C127.1,209.4,124.4,211.1,121.3,211.2z"/>
	</g>
	<g>
		<path d="M178.1,205.2c-0.2-1.5,0.3-3.3,0.2-5c-0.1-1.6-0.2-3.2-0.2-4.8c0-1.3,0.3-2.6,0.3-3.9c0-0.4,0.2-0.9,0.5-1.2
			c0.3-0.4,0.2-0.6-0.3-0.7c-0.4,0-0.8,0-1.3,0.1c-0.6,0.1-1.3,0.2-1.9,0.1c-1.1-0.1-2.2-0.1-3.3,0.1c-0.3,0-0.6,0.2-0.7,0.5
			c-0.1,0.1-0.2,0.3-0.3,0.4c-0.2,0.2-0.3,0.4-0.6,0.3c-0.2-0.1-0.3-0.4-0.2-0.6c0.3-0.9,0.7-1.8,1.4-2.5c0.5-0.5,1.2-0.7,1.9-0.7
			c2-0.1,4.1,0.2,6.1,0.1c2.1-0.1,4.2-0.2,6.3-0.2c0.7,0,1.5,0,2.2,0.2c0.4,0.1,0.7,0.1,1.1,0.1c0.6,0,0.8,0.3,0.6,0.8
			c-0.4,0.9-0.9,1.8-1.5,2.5c-0.2,0.3-0.5,0.5-0.8,0.4c-0.3-0.1-0.4-0.4-0.4-0.7c0-0.4-0.3-0.6-0.6-0.7c-1.3-0.3-2.7-0.4-4-0.2
			c-1.6,0.2-1.6,0.2-1.8,1.9c-0.2,1.4-0.3,2.9-0.2,4.4c0.4,2.9-0.1,5.8,0,8.7c0,0.6,0,1.2,0,1.8c0,0.5-0.1,1-0.3,1.5
			c-0.2,0.3,0,0.5,0.3,0.5c0.4,0,0.8,0,1.2,0c0.8,0,1.2,0.6,0.8,1.3c-0.4,0.9-1.3,1.3-2.2,1.2c-1.2-0.1-2.3-0.1-3.5,0
			c-0.2,0-0.4,0-0.6,0c-0.2,0-0.4-0.2-0.5-0.4c-0.1-0.2-0.1-0.5,0.1-0.7c0.3-0.6,0.8-1.1,1.5-1.4c0.5-0.1,0.8-0.6,0.7-1
			C178.1,206.8,178.1,206.1,178.1,205.2z"/>
	</g>
	<g>
		<path d="M232.1,187.4c0.5,0,1-0.1,1.5-0.1c0.4,0,0.8,0,0.9,0.4c0.1,0.5-0.2,0.7-0.6,0.9c-1,0.2-1.7,1.1-1.7,2.1
			c-0.2,3.3-0.2,6.6,0,10c0,1.1,0.1,2.2,0.4,3.3c0.7,2.7,2.9,4.8,5.7,5.3c1,0.2,2,0.2,3-0.1c1.4-0.4,2.4-1.6,2.6-3
			c0.6-2.6,0.7-5.2,0.2-7.8c-0.1-0.7-0.1-1.3-0.1-2c0.1-1.4,0.1-2.9-0.1-4.3c-0.1-0.5,0-1.1-0.1-1.6c-0.1-0.9-0.3-1.4-1.3-1.4
			c-0.3,0.1-0.6-0.1-0.7-0.4c-0.1-0.4,0.1-0.6,0.4-0.8c1.2-0.8,2.7-1,4-0.7c0.6,0.1,1.1,0.2,1.7,0.2c0.3,0,0.6,0.1,0.6,0.4
			c0.1,0.3-0.3,0.6-0.5,0.7c-1.9,1.1-1.5,0.7-1.3,2.9c0.2,3.3,0.2,6.7,0.4,10.1c0,1.4-0.3,2.8-0.8,4c-0.7,1.7-2.1,3.1-3.8,3.8
			c-0.9,0.5-1.9,0.8-2.9,1.3c-2,0.8-4.2,0.6-6-0.4c-2.3-1-3.9-3-4.5-5.5c-0.2-1.1-0.3-2.2-0.2-3.3c0.1-1.1,0-2.2,0-3.3
			c-0.1-1.9,0-3.8,0.2-5.7c0.1-0.7,0.1-1.3,0.2-2c0.1-0.5-0.1-0.8-0.7-0.8c-0.2,0-0.4,0-0.5-0.1c-0.3-0.1-0.6-0.1-0.6-0.4
			c-0.1-0.3,0.1-0.6,0.3-0.7c0.6-0.6,1.5-1,2.4-0.9c0.1,0,0.3,0,0.4,0C231,187.5,231.8,187.4,232.1,187.4z"/>
	</g>
	<g>
		<path d="M25.4,221.2c0.4,0,0.7,0,1.1,0c0.6,0.1,0.8,0.5,0.5,1.1c-0.2,0.3-0.4,0.6-0.6,0.8c-0.3,0.4-0.8,0.6-1.4,0.6
			c-0.9-0.1-1.7,0.4-2,1.2c-0.8,1.6-1.7,3.1-2.4,4.7c-0.5,1-0.9,2.1-1.4,3.1c-1.1,2.6-2.2,5.2-3.4,7.7c-0.8,1.7-1.9,3.2-3.2,4.6
			c-0.2,0.2-0.4,0.4-0.7,0.3c-0.3,0-0.5-0.2-0.6-0.5c-1.6-2.4-2.9-4.9-4-7.6c-0.9-2.6-2.1-5.1-2.9-7.7c-0.5-1.6-1.1-3.2-1.7-4.8
			c-0.1-0.4-0.5-0.7-0.9-0.7c-0.5,0-1-0.1-1.4-0.3c-0.3-0.1-0.5-0.4-0.5-0.6c-0.1-0.3,0-0.6,0.2-0.8c0.5-0.8,1.4-1.1,2.3-0.9
			c1.5,0.2,3.1,0.2,4.6,0c0.7,0,1.1,0.3,0.9,1c-0.2,0.8-0.8,1.4-1.6,1.5c-0.5,0.1-0.5,0.3-0.4,0.8c0.8,3.6,2.4,6.8,3.6,10.3
			c0.8,2.4,2,4.6,3.5,6.6c0.1,0.1,0.2,0.3,0.4,0.3c0.2,0,0.3-0.2,0.4-0.4c1.8-3.2,3-6.7,4.6-10c0.5-0.9,0.9-1.8,1.2-2.7
			c0.4-0.8,0.9-1.7,1.5-2.4c0.3-0.5,0.6-1,0.8-1.5c0.1-0.2,0.2-0.4,0.1-0.6c-0.2-0.2-0.4-0.4-0.7-0.3c-0.3,0.1-0.7,0.1-1,0.1
			c-0.8-0.3-1-0.9-0.5-1.5c0.7-0.6,1.6-0.9,2.5-0.9C23.3,221.3,24.4,221.2,25.4,221.2z"/>
	</g>
	<g>
		<path d="M59.8,221.1c1.9,0.1,3.8,0.1,5.6,0.1c0.3,0,0.7,0,0.8,0.3c0.2,0.4-0.1,0.6-0.3,0.9c-0.6,0.6-1.3,1.1-2.1,1.3
			c-1,0.2-1.1,0.5-0.7,1.4c0.5,1.3,0.9,2.7,1.3,4.1c0.2,0.7,0.4,1.3,0.7,2c0.9,2.7,1.8,5.4,2.8,8.1c0.1,0.4,0.2,0.9,0.6,0.9
			c0.4,0,0.5-0.5,0.7-0.8c1-2.3,2.3-4.5,3.2-6.8c0.5-1.4,1.1-2.8,1.8-4.2c0.6-1,0.7-2.2,0.3-3.3c-0.4-1.2,0.1-1.9,1.1-2.6
			c0.5-0.3,0.9-0.2,1.1,0.4c0.4,1.4,1,2.8,1.3,4.3c0.3,1.5,0.8,3,1.4,4.5c0.4,1.1,0.8,2.2,1.1,3.3c0.4,1.5,1,3.1,1.6,4.5
			c0.1,0.2,0.1,0.4,0.3,0.4c0.2,0,0.3-0.2,0.4-0.4c1.3-2.3,2.4-4.7,3.4-7.1c0.2-0.5,0.4-0.9,0.7-1.4c1.1-2.1,1.9-4.3,2.9-6.5
			c0.3-0.7,0.2-0.8-0.5-0.9c-0.6-0.1-1.1-0.1-1.7-0.1c-0.3,0-0.6,0-0.7-0.3c-0.1-0.3,0-0.5,0.2-0.7c0.4-0.8,1.3-1.3,2.3-1.2
			c0.6,0.1,1.2,0,1.9,0.1c0.3,0,0.7,0,1-0.1c0.3-0.1,0.6-0.1,0.9-0.1c0.4,0,0.8-0.1,0.9,0.2c0,0.4-0.1,0.8-0.3,1.1
			c-0.4,0.6-1,0.9-1.7,0.9c-0.5,0-0.9,0.3-1.1,0.8c-0.5,1.5-1.3,3-1.8,4.4c-0.4,1.2-0.9,2.3-1.4,3.5c-0.4,0.9-1,1.8-1.4,2.7
			c-0.8,1.8-1.6,3.5-2.4,5.3c-0.2,0.5-0.4,1-0.5,1.5c-0.1,0.4,0,0.7,0.2,1c0.2,0.2,0.3,0.5,0.2,0.8c-0.1,0.3-0.2,0.5-0.5,0.6
			c-1.4,0.9-2,1.1-2.8-0.7c-0.9-2.2-1.7-4.4-2.4-6.7c-0.6-2.1-1.5-4-2-6.1c-0.1-0.5-0.2-1-0.4-1.4c0-0.1-0.1-0.3-0.2-0.3
			s-0.2,0.2-0.3,0.3c-0.8,1.5-1.6,3.1-2.1,4.8c-1.1,2.5-2.3,4.9-3.2,7.4c-0.1,0.2-0.2,0.3-0.3,0.5c-0.3,0.4-0.4,0.9-0.2,1.4
			c0.1,0.5,0,1-0.3,1.4c-0.3,0.4-0.7,0.6-1.2,0.7c-0.4,0-0.7-0.2-0.9-0.5c-0.2-0.3-0.3-0.6-0.4-0.9c-1.3-3.7-2.6-7.5-3.8-11.2
			c-0.3-1-0.6-2-0.8-2.9c-0.2-1.1-0.6-2.1-1.1-3.1c-0.4-0.7-0.7-1.5-0.7-2.4c0-0.4-0.2-0.5-0.5-0.5c-0.6,0-1.3,0-1.9-0.1
			c-0.9-0.1-1-0.6-0.6-1.3c0.4-0.8,1.3-1.2,2.1-1.1C59.3,221.1,59.6,221.1,59.8,221.1z"/>
	</g>
	<g>
		<path d="M132.3,244.7c-0.9,0.2-2.1,0-3.2,0.2c-0.8,0.1-1.5-0.1-1.7-0.5c-0.2-0.7,0.2-1.1,0.7-1.6c0.8-0.7,0.8-0.7,0.2-1.6
			c-1.1-1.7-2.1-3.4-3.3-4.9c-0.2-0.3-0.4-0.7-0.6-1c-0.3-0.4-0.5-0.5-0.9-0.1c-1,1.1-1.9,2.3-2.8,3.5c-0.6,1.1-1.4,2.1-2.1,3
			c-0.1,0.1-0.2,0.2-0.1,0.4c0.1,0.1,0.2,0.1,0.3,0.1c0.5,0,1,0.1,1.5,0.1c0.6,0.1,0.8,0.4,0.6,1c-0.3,0.8-1,1.3-1.8,1.4
			c-1.6,0.1-3.3,0.1-4.9-0.1c-0.5,0-0.7-0.4-0.5-0.9c0.2-0.9,1-1.5,1.9-1.5c1.1,0,2.1-0.6,2.6-1.5c1.3-1.6,2.4-3.2,3.6-4.8
			c0.3-0.4,0.7-0.9,1.1-1.3c0.2-0.2,0.4-0.5,0.4-0.8c0-0.3-0.1-0.6-0.3-0.9c-1.1-1.6-1.9-3.3-2.9-4.9c-0.8-1.2-1.6-2.5-2.3-3.7
			c-0.2-0.3-0.5-0.4-0.8-0.3c-0.4,0-0.9,0-1.3,0c-0.3,0-0.6-0.1-0.7-0.4c-0.1-0.3-0.1-0.6,0-0.8c0.3-0.9,1.2-1.4,2.1-1.3
			c1.3,0.1,2.6,0,3.8-0.2c0.4-0.1,0.8-0.1,1.2,0.1c0.5,0.2,0.6,0.5,0.4,1c-0.3,0.6-0.6,1.2-1.4,1.3c-0.4,0.1-0.5,0.4-0.2,0.7
			c0.5,0.7,0.9,1.4,1.4,2.2c0.8,1.4,1.6,2.8,2.5,4.1c0.5,0.8,0.8,0.8,1.4,0.1c1.1-1.3,2.1-2.6,3.1-3.9c0.4-0.6,0.9-1,1.4-1.6
			c0.2-0.2,0.3-0.4,0.5-0.6c0.3-0.4,0.2-0.6-0.3-0.6c-0.2,0-0.4,0-0.7-0.1c-0.6-0.1-0.8-0.5-0.5-1c0.6-0.9,1.3-1.7,2.6-1.4
			c0.8,0.1,1.5,0.1,2.3,0.1c0.4,0,0.8,0.1,1.2,0.2c0.5,0.2,0.7,0.5,0.4,1c-0.3,0.7-1.1,1.2-1.9,1.2c-0.2,0-0.4,0-0.6,0
			c-0.5,0-1,0.2-1.2,0.7c-0.2,0.5-0.5,0.9-0.8,1.4c-0.1,0.3-0.3,0.5-0.6,0.6c-1.7,1.1-2.6,2.8-3.8,4.3c-0.3,0.3-0.5,0.7-0.8,1
			c-0.3,0.3-0.4,0.8-0.1,1.2c0.4,0.9,1,1.7,1.5,2.5c1.4,1.8,2.6,3.8,3.8,5.8c0.4,0.6,1,1,1.8,1c0.5,0,1.1,0,1.6,0.1
			c0.7,0.2,0.8,0.6,0.4,1.2C134.7,244.6,133.7,244.8,132.3,244.7z"/>
	</g>
	<g>
		<path d="M181,244.8c-0.9,0-1.9,0-2.8-0.1c-0.9-0.2-1.3-0.3-0.6-1.6c0.4-0.7,1.1-1.2,1.9-1.2c0.3,0,0.4-0.2,0.4-0.5
			c0.1-1.4,0.1-2.8-0.2-4.2c-0.1-0.4-0.3-0.8-0.6-1.2c-1.4-1.9-2.6-4-3.7-6.1c-0.8-1.9-2.1-3.5-2.9-5.5c-0.1-0.3-0.4-0.5-0.7-0.5
			c-0.3,0-0.7-0.1-1-0.1c-0.3,0-0.6-0.2-0.7-0.5s-0.1-0.6,0.1-0.9c0.3-0.8,1.2-1.3,2.1-1.2c0.7,0,1.4,0,2,0c0.8,0,1.5,0,2.3,0.1
			c0.9,0.1,1.1,0.5,0.6,1.2c-0.3,0.6-0.7,1.1-1.2,1.4c-0.4,0.2-0.1,0.6,0,0.8c0.5,0.8,1,1.6,1.4,2.5c1.1,2.1,2.4,4.1,3.7,6.1
			c0.4,0.7,0.6,0.7,1,0c1-1.7,2-3.4,3.1-5c0.8-1.2,1.4-2.5,2.2-3.7c0.2-0.4,0.1-0.6-0.3-0.7c-0.2-0.1-0.5-0.1-0.8-0.1
			c-0.3,0-0.5-0.2-0.7-0.5c-0.1-0.3-0.1-0.6,0.1-0.8c0.5-0.7,1-1.4,2.1-1.1c1.1,0.2,2.2-0.3,3.4-0.2c0.2,0,0.4,0,0.5,0
			c0.6,0.1,0.8,0.5,0.6,1.1c-0.3,0.9-1.1,1.4-2,1.4c-0.8-0.1-1.6,0.4-1.9,1.2c-1.6,3-3.3,5.9-5.2,8.8c-0.8,1-1.1,2.3-0.9,3.5
			c0.1,1.1,0.1,2.2,0,3.4c0,0.2,0,0.4,0,0.7c0,0.2,0.1,0.4,0.2,0.6s0.4,0.2,0.6,0.2c0.4,0,0.7,0.1,1.1,0.1c0.6,0.1,0.8,0.4,0.6,0.9
			c-0.2,0.5-0.5,1-0.8,1.4c-0.2,0.3-0.6,0.4-0.9,0.3C182.3,244.8,181.6,244.8,181,244.8z"/>
	</g>
	<g>
		<path d="M241.8,244.9c-1.7,0.1-3.7-0.2-5.7-0.3c-0.4,0-0.8,0-1.2,0c-2.2,0-4.4,0.4-6.6,0.5c-0.1,0-0.2,0-0.3,0
			c-0.3,0-0.7,0.1-0.9-0.3c-0.2-0.4-0.1-0.8,0.2-1.1c0.3-0.5,0.8-0.8,1.3-1c0.7-0.2,1.3-0.6,1.8-1.2c1.7-1.9,3.5-3.8,5.1-5.8
			c1.4-1.7,2.6-3.4,3.9-5.2c1.4-1.9,2.5-3.9,3.9-5.7c0.1-0.1,0.2-0.2,0.2-0.3c0.2-0.3,0.1-0.6-0.3-0.6c-1.9-0.1-3.7-0.1-5.6,0
			c-1.3,0.1-2.7,0-4,0.1c-1.1,0-2.2,0-3.3-0.1c-0.6-0.1-1.1,0.1-1.5,0.6c-0.1,0.1-0.2,0.2-0.4,0.3c-0.1,0.1-0.3,0.2-0.5,0.1
			c-0.1-0.1-0.2-0.4,0-0.5c0.4-0.8,0.9-1.6,1.5-2.4c0.5-0.5,1.1-0.7,1.8-0.7c2.8,0.1,5.7,0.1,8.5,0c1.3-0.1,2.7,0.1,4,0.1
			c0.7,0,1.3,0,2,0c0.6-0.1,0.8,0.3,0.6,0.8c-0.1,0.3-0.3,0.6-0.4,0.8c-2.2,3.2-4.2,6.5-6.6,9.6c-1.9,2.6-3.9,5-6.2,7.3
			c-0.6,0.6-1.1,1.2-1.6,1.9c-0.3,0.4-0.2,0.6,0.3,0.7c0.3,0,0.6,0,0.9,0c2.3-0.4,4.7-0.4,7-0.2c1.7,0.1,3.4,0.1,5.1,0.1
			c0.6,0,1.1-0.1,1.6-0.4c0.2-0.2,0.6-0.3,0.8,0c0.1,0.1,0.1,0.3,0.1,0.4s-0.1,0.3-0.2,0.4c-0.7,0.6-1.3,1.3-2,1.9
			c-0.2,0.2-0.6,0.3-0.9,0.2H241.8z"/>
	</g>
</g>
</svg>
